<svg width="50" height="25" viewBox="0 0 152 152" fill="none" xmlns="http://www.w3.org/2000/svg">
<g id="solar:user-id-bold">
<path id="Vector" fill-rule="evenodd" clip-rule="evenodd" d="M63.3332 25.3333H88.6665C112.549 25.3333 124.494 25.3333 131.91 32.756C139.333 40.1723 139.333 52.117 139.333 76C139.333 99.883 139.333 111.828 131.91 119.244C124.494 126.667 112.549 126.667 88.6665 126.667H63.3332C39.4502 126.667 27.5055 126.667 20.0892 119.244C12.6665 111.828 12.6665 99.883 12.6665 76C12.6665 52.117 12.6665 40.1723 20.0892 32.756C27.5055 25.3333 39.4502 25.3333 63.3332 25.3333ZM83.9165 57C83.9165 55.7402 84.4169 54.532 85.3077 53.6412C86.1985 52.7504 87.4067 52.25 88.6665 52.25H120.333C121.593 52.25 122.801 52.7504 123.692 53.6412C124.583 54.532 125.083 55.7402 125.083 57C125.083 58.2598 124.583 59.468 123.692 60.3587C122.801 61.2495 121.593 61.75 120.333 61.75H88.6665C87.4067 61.75 86.1985 61.2495 85.3077 60.3587C84.4169 59.468 83.9165 58.2598 83.9165 57ZM90.2498 76C90.2498 74.7402 90.7503 73.532 91.6411 72.6412C92.5319 71.7504 93.7401 71.25 94.9998 71.25H120.333C121.593 71.25 122.801 71.7504 123.692 72.6412C124.583 73.532 125.083 74.7402 125.083 76C125.083 77.2598 124.583 78.468 123.692 79.3587C122.801 80.2495 121.593 80.75 120.333 80.75H94.9998C93.7401 80.75 92.5319 80.2495 91.6411 79.3587C90.7503 78.468 90.2498 77.2598 90.2498 76ZM96.5832 95C96.5832 93.7402 97.0836 92.532 97.9744 91.6412C98.8652 90.7504 100.073 90.25 101.333 90.25H120.333C121.593 90.25 122.801 90.7504 123.692 91.6412C124.583 92.532 125.083 93.7402 125.083 95C125.083 96.2598 124.583 97.468 123.692 98.3587C122.801 99.2495 121.593 99.75 120.333 99.75H101.333C100.073 99.75 98.8652 99.2495 97.9744 98.3587C97.0836 97.468 96.5832 96.2598 96.5832 95ZM69.6665 57C69.6665 60.3594 68.332 63.5812 65.9565 65.9567C63.5811 68.3321 60.3592 69.6667 56.9998 69.6667C53.6404 69.6667 50.4186 68.3321 48.0431 65.9567C45.6677 63.5812 44.3332 60.3594 44.3332 57C44.3332 53.6406 45.6677 50.4188 48.0431 48.0433C50.4186 45.6678 53.6404 44.3333 56.9998 44.3333C60.3592 44.3333 63.5811 45.6678 65.9565 48.0433C68.332 50.4188 69.6665 53.6406 69.6665 57ZM56.9998 107.667C82.3332 107.667 82.3332 101.998 82.3332 95C82.3332 88.0017 70.9965 82.3333 56.9998 82.3333C43.0032 82.3333 31.6665 88.0017 31.6665 95C31.6665 101.998 31.6665 107.667 56.9998 107.667Z" fill="#1a41b6"/>
</g>
</svg>
