<svg width="227" height="148" viewBox="0 0 227 148" fill="none" xmlns="http://www.w3.org/2000/svg">
<path d="M65.2434 27.7288L0.742371 38.1221L18.3549 147.426L82.8559 137.033L65.2434 27.7288Z" fill="#0AB34E"/>
<path d="M65.4921 29.7857L3.12598 39.835L20.0783 145.042L82.4444 134.993L65.4921 29.7857Z" fill="#FAFAFA"/>
<path d="M28.5691 78.0163C30.1078 72.5878 33.815 70.3332 40.3386 69.2821C48.1167 68.0288 52.6017 70.2021 54.406 74.1105C40.5266 76.54 28.5691 78.0163 28.5691 78.0163Z" fill="#9BD6E8"/>
<path d="M33.6701 45.1599C30.5417 46.6132 30.981 48.4409 30.1587 50.3271C29.3364 52.2133 27.1372 53.7422 27.0394 54.9324C26.9416 56.1227 28.345 58.342 27.3523 59.8695C26.3596 61.3971 26.0448 62.1396 26.7457 63.3942C27.4466 64.6488 28.8202 66.5834 28.9598 66.8505C29.0994 67.1176 30.7558 68.9101 32.4165 68.9321C34.0771 68.9541 37.2134 68.9475 38.8407 69.361C40.4679 69.7746 45.1337 67.4782 47.8775 67.1326C50.6213 66.7871 52.1326 64.4842 51.7296 63.1815C51.3267 61.8789 53.0926 58.8593 52.7236 56.5697C52.3547 54.2802 49.1615 52.7354 48.1485 51.2414C47.1356 49.7475 47.5225 46.757 44.3955 45.5232C42.4021 44.7343 41.1809 45.0437 39.6756 44.7875C38.1702 44.5313 35.6779 44.2411 33.6701 45.1599Z" fill="#3A384D"/>
<path d="M42.2749 73.1044C41.7147 74.3208 41.1734 74.4563 40.1892 73.4404C39.3997 72.6345 37.7985 70.7849 37.6292 69.7342L35.9438 59.2745C35.9033 59.0233 35.9127 58.7665 35.9714 58.5189C36.0302 58.2713 36.1371 58.0377 36.2861 57.8314C36.4352 57.6251 36.6234 57.4502 36.84 57.3167C37.0566 57.1831 37.2974 57.0935 37.5487 57.0531L39.6343 56.717C40.1417 56.6352 40.6608 56.7584 41.0774 57.0594C41.494 57.3603 41.774 57.8145 41.8558 58.3219L43.5412 68.7816C43.7105 69.8323 42.7925 72.0234 42.2749 73.1044Z" fill="#F09959"/>
<path d="M39.6343 56.717L37.5487 57.0531C37.0413 57.1348 36.5871 57.4148 36.2861 57.8314C35.9852 58.248 35.862 58.7671 35.9438 59.2745L37.4472 68.6051C39.9208 68.9788 41.8291 67.1429 42.9701 65.2375L41.8558 58.3219C41.774 57.8145 41.494 57.3603 41.0774 57.0594C40.6608 56.7584 40.1417 56.6352 39.6343 56.717Z" fill="#E38540"/>
<path d="M40.0106 65.6364C43.5096 65.0726 45.7227 60.747 44.9537 55.9749C44.1848 51.2028 40.725 47.7913 37.226 48.3551C33.7271 48.9189 31.514 53.2445 32.2829 58.0166C33.0519 62.7887 36.5117 66.2002 40.0106 65.6364Z" fill="#F09959"/>
<path d="M40.4572 49.6499C37.5474 57.0531 31.5293 57.3471 31.5293 57.3471C31.5293 57.3471 30.2276 48.3701 34.8381 47.1284C39.4486 45.8868 42.53 47.337 43.9869 50.2879C45.4438 53.2387 44.8182 55.4471 44.8182 55.4471C43.6848 54.7765 42.7289 53.8436 42.0309 52.7268C41.4267 51.7439 40.9005 50.7151 40.4572 49.6499Z" fill="#3A384D"/>
<path d="M32.9458 60.8243C33.7116 60.2968 33.6911 58.938 32.9 57.7893C32.1089 56.6405 30.8468 56.1368 30.0809 56.6642C29.3151 57.1916 29.3355 58.5504 30.1267 59.6992C30.9178 60.848 32.1799 61.3517 32.9458 60.8243Z" fill="#F09959"/>
<path d="M43.9928 55.9987C43.5965 57.3336 44.0151 58.6337 44.9094 58.8918C45.8037 59.1499 46.8373 58.2755 47.2336 56.9406C47.6299 55.6057 47.2244 54.2874 46.3301 54.0293C45.4358 53.7712 44.3865 54.6482 43.9928 55.9987Z" fill="#F09959"/>
<path d="M51.4166 88.3948L35.4056 90.9747C34.9353 91.0067 34.4701 90.8619 34.1011 90.5687C33.7321 90.2754 33.4859 89.8549 33.4109 89.3895C33.336 88.9242 33.4375 88.4476 33.6958 88.0533C33.954 87.659 34.3502 87.3754 34.8067 87.2581L50.8178 84.6782C51.288 84.6461 51.7533 84.7909 52.1223 85.0842C52.4913 85.3774 52.7374 85.798 52.8124 86.2633C52.8874 86.7287 52.7858 87.2052 52.5276 87.5995C52.2694 87.9939 51.8732 88.2775 51.4166 88.3948Z" fill="#0AB34E"/>
<path d="M55.253 93.6359L33.3927 97.1583C32.9225 97.1903 32.4572 97.0455 32.0882 96.7523C31.7192 96.459 31.473 96.0385 31.398 95.5732C31.3231 95.1078 31.4246 94.6312 31.6829 94.2369C31.9411 93.8426 32.3373 93.559 32.7939 93.4417L54.6541 89.9193C54.9087 89.8539 55.1741 89.8423 55.4334 89.8853C55.6927 89.9282 55.9401 90.0248 56.16 90.1687C56.3799 90.3127 56.5673 90.501 56.7103 90.7215C56.8533 90.942 56.9488 91.1899 56.9906 91.4493C57.0324 91.7088 57.0196 91.9742 56.9531 92.2284C56.8866 92.4827 56.7678 92.7203 56.6043 92.926C56.4408 93.1318 56.2362 93.3012 56.0035 93.4234C55.7708 93.5456 55.5152 93.618 55.253 93.6359Z" fill="#0AB34E"/>
<path d="M74.2312 111.67L21.0545 120.238C20.9055 120.281 20.7491 120.292 20.5956 120.27C20.4422 120.248 20.2951 120.194 20.1642 120.11C20.0333 120.027 19.9215 119.917 19.8362 119.788C19.7509 119.659 19.694 119.512 19.6693 119.359C19.6447 119.206 19.6528 119.05 19.6931 118.9C19.7334 118.75 19.805 118.611 19.9032 118.491C20.0014 118.371 20.124 118.273 20.2627 118.204C20.4015 118.135 20.5534 118.096 20.7083 118.09L73.885 109.521C74.034 109.478 74.1904 109.468 74.3439 109.49C74.4973 109.512 74.6444 109.566 74.7753 109.649C74.9062 109.732 75.018 109.842 75.1033 109.972C75.1886 110.101 75.2455 110.247 75.2701 110.4C75.2948 110.553 75.2867 110.71 75.2464 110.86C75.2061 111.009 75.1345 111.149 75.0363 111.269C74.9381 111.389 74.8155 111.487 74.6767 111.556C74.538 111.625 74.3861 111.664 74.2312 111.67Z" fill="#0AB34E"/>
<path d="M75.0398 116.688L21.8632 125.257C21.7142 125.3 21.5578 125.31 21.4043 125.288C21.2508 125.266 21.1038 125.212 20.9728 125.129C20.8419 125.046 20.7301 124.936 20.6448 124.807C20.5595 124.677 20.5027 124.531 20.478 124.378C20.4533 124.225 20.4614 124.068 20.5017 123.919C20.5421 123.769 20.6137 123.629 20.7119 123.509C20.8101 123.389 20.9326 123.292 21.0714 123.223C21.2102 123.153 21.3621 123.115 21.517 123.108L74.6937 114.54C74.8426 114.497 74.999 114.486 75.1525 114.508C75.306 114.53 75.453 114.585 75.584 114.668C75.7149 114.751 75.8267 114.861 75.912 114.99C75.9973 115.12 76.0541 115.266 76.0788 115.419C76.1035 115.572 76.0954 115.728 76.0551 115.878C76.0147 116.028 75.9431 116.167 75.8449 116.287C75.7467 116.407 75.6242 116.505 75.4854 116.574C75.3466 116.643 75.1948 116.682 75.0398 116.688Z" fill="#0AB34E"/>
<path d="M75.8479 121.705L22.6713 130.274C22.3843 130.32 22.0907 130.25 21.8551 130.08C21.6195 129.91 21.4611 129.653 21.4149 129.366C21.3687 129.079 21.4383 128.786 21.6085 128.55C21.7788 128.314 22.0356 128.156 22.3226 128.11L75.4992 119.541C75.7862 119.495 76.0798 119.565 76.3154 119.735C76.551 119.905 76.7094 120.162 76.7556 120.449C76.8019 120.736 76.7322 121.03 76.562 121.265C76.3918 121.501 76.1349 121.659 75.8479 121.705Z" fill="#0AB34E"/>
<path d="M60.5585 74.148L22.2481 80.321C21.7372 80.3992 21.216 80.2733 20.797 79.9706C20.378 79.6679 20.0948 79.2126 20.0085 78.703L14.3206 43.4035C14.2798 43.1502 14.2892 42.8913 14.3485 42.6417C14.4077 42.392 14.5155 42.1565 14.6657 41.9485C14.816 41.7406 15.0057 41.5642 15.2241 41.4296C15.4425 41.2949 15.6853 41.2046 15.9386 41.1638L54.249 34.9907C54.7585 34.9129 55.2782 35.0395 55.6947 35.3431C56.1113 35.6466 56.391 36.1025 56.473 36.6113L62.1609 71.9108C62.2429 72.4197 62.1205 72.9403 61.8204 73.3594C61.5203 73.7784 61.0667 74.0618 60.5585 74.148ZM16.1913 42.732C16.0956 42.7474 16.01 42.8002 15.9533 42.8787C15.8965 42.9573 15.8733 43.0551 15.8887 43.1508L21.5767 78.4503C21.5957 78.5441 21.6494 78.6273 21.727 78.6833C21.8046 78.7394 21.9004 78.7642 21.9954 78.7529L60.3059 72.5798C60.3981 72.5608 60.4795 72.5069 60.5329 72.4293C60.5864 72.3517 60.6078 72.2565 60.5927 72.1635L54.9048 36.864C54.8994 36.8171 54.8846 36.7717 54.8611 36.7306C54.8377 36.6896 54.8062 36.6537 54.7685 36.6252C54.7309 36.5967 54.6878 36.5761 54.6419 36.5647C54.5961 36.5533 54.5484 36.5513 54.5017 36.5589L16.1913 42.732Z" fill="#C6C6C6"/>
<path d="M31.4929 102.451L32.952 104.516L35.4878 104.478L33.9831 106.522L34.8032 108.916L32.4051 108.112L30.3653 109.631L30.392 107.101L28.3212 105.632L30.7408 104.873L31.4929 102.451Z" fill="#0AB34E"/>
<path d="M40.5743 100.988L42.0491 103.051L44.5849 103.012L43.0645 105.059L43.8846 107.453L41.4865 106.649L39.4467 108.168L39.4734 105.638L37.4027 104.17L39.8223 103.41L40.5743 100.988Z" fill="#0AB34E"/>
<path d="M49.6558 99.5239L51.1305 101.587L53.6664 101.548L52.146 103.595L52.9661 105.989L50.568 105.185L48.5439 106.702L48.5706 104.171L46.4842 102.706L48.9037 101.946L49.6558 99.5239Z" fill="#0AB34E"/>
<path d="M58.7316 98.062L60.2063 100.125L62.7421 100.086L61.2374 102.131L62.0575 104.525L59.6437 103.723L57.6196 105.24L57.6463 102.71L55.5599 101.244L57.9795 100.484L58.7316 98.062Z" fill="#0AB34E"/>
<path d="M226.99 37.3036L160.881 23.3574L138.022 131.717L204.132 145.663L226.99 37.3036Z" fill="#0AB34E"/>
<path d="M224.854 38.9405L163.044 25.9014L141.048 130.171L202.858 143.21L224.854 38.9405Z" fill="#FAFAFA"/>
<path d="M179.713 52.9248C178.667 57.8827 179.963 66.5163 187.075 67.7406C194.187 68.9649 197.332 61.6739 198.067 59.5726C198.803 57.4713 179.713 52.9248 179.713 52.9248Z" fill="#7A4E34"/>
<path d="M172.703 71.6102C176.09 67.0975 180.36 66.3262 186.826 67.6901C194.534 69.3163 197.938 72.9565 198.217 77.2523C184.392 74.5306 172.703 71.6102 172.703 71.6102Z" fill="#D54A41"/>
<path d="M187.274 71.9556C186.299 72.8862 185.745 72.8181 185.192 71.5163C184.745 70.4804 183.915 68.1789 184.135 67.1376L186.322 56.7711C186.374 56.5221 186.475 56.2859 186.619 56.0759C186.763 55.866 186.947 55.6864 187.16 55.5475C187.373 55.4086 187.612 55.313 187.862 55.2663C188.112 55.2195 188.369 55.2225 188.618 55.275L190.701 55.7143C191.2 55.8239 191.636 56.1264 191.913 56.5559C192.19 56.9853 192.287 57.507 192.181 58.0072L189.994 68.3736C189.775 69.4149 188.13 71.1297 187.274 71.9556Z" fill="#F09959"/>
<path d="M190.701 55.7143L188.618 55.275C188.369 55.2225 188.112 55.2195 187.862 55.2663C187.612 55.313 187.373 55.4086 187.16 55.5475C186.947 55.6864 186.763 55.866 186.619 56.0759C186.475 56.2859 186.374 56.5221 186.322 56.7711L184.371 66.0186C186.545 67.2564 188.986 66.2291 190.735 64.8611L192.181 58.0072C192.287 57.507 192.19 56.9853 191.913 56.5559C191.636 56.1264 191.2 55.8239 190.701 55.7143Z" fill="#E38540"/>
<path d="M187.827 64.1686C191.295 64.9001 194.915 61.6591 195.913 56.9295C196.911 52.2 194.908 47.7729 191.44 47.0414C187.973 46.3098 184.353 49.5508 183.355 54.2804C182.357 59.0099 184.36 63.437 187.827 64.1686Z" fill="#F09959"/>
<path d="M194.459 49.8362C193.159 52.3055 191.533 51.9301 189.065 52.3185C186.597 52.7069 185.329 53.3322 184.229 54.8533C182.825 56.8137 182.89 63.3533 182.89 63.3533C182.89 63.3533 178.02 57.813 180.121 51.1622C182.222 44.5113 186.786 42.7306 190.563 43.5274C194.339 44.3241 195.272 46.9071 195.272 46.9071C195.272 46.9071 197.289 47.3488 198.71 50.0024C200.622 53.5553 198.294 60.7426 195.969 62.9955C193.643 65.2483 192.284 65.8384 192.357 65.7239C192.43 65.6094 195.303 59.9168 195.223 55.9876C195.143 52.0584 194.459 49.8362 194.459 49.8362Z" fill="#7A4E34"/>
<path d="M190.293 89.5074L174.425 86.1599C173.975 86.0208 173.593 85.7185 173.354 85.3122C173.115 84.9059 173.036 84.425 173.134 83.9638C173.231 83.5026 173.497 83.0944 173.88 82.8192C174.262 82.5441 174.734 82.4219 175.202 82.4765L191.071 85.824C191.521 85.9631 191.903 86.2655 192.142 86.6718C192.381 87.078 192.459 87.559 192.362 88.0202C192.265 88.4814 191.999 88.8896 191.616 89.1647C191.233 89.4398 190.762 89.5621 190.293 89.5074Z" fill="#0AB34E"/>
<path d="M192.004 95.7793L170.338 91.2089C170.077 91.1784 169.826 91.0938 169.599 90.9606C169.373 90.8273 169.176 90.6482 169.023 90.4348C168.87 90.2215 168.762 89.9784 168.708 89.7212C168.654 89.4641 168.654 89.1984 168.708 88.9413C168.762 88.6841 168.87 88.4411 169.023 88.2277C169.177 88.0144 169.373 87.8354 169.599 87.7021C169.826 87.5689 170.078 87.4844 170.339 87.454C170.6 87.4235 170.864 87.4479 171.116 87.5255L192.781 92.0959C193.231 92.235 193.613 92.5374 193.852 92.9436C194.091 93.3499 194.17 93.8308 194.073 94.292C193.975 94.7532 193.709 95.1614 193.326 95.4366C192.944 95.7117 192.472 95.834 192.004 95.7793Z" fill="#0AB34E"/>
<path d="M203.217 119.427L150.515 108.309C150.36 108.296 150.21 108.25 150.075 108.174C149.94 108.098 149.822 107.995 149.73 107.87C149.637 107.746 149.573 107.603 149.54 107.451C149.507 107.3 149.506 107.143 149.538 106.991C149.57 106.84 149.634 106.696 149.725 106.571C149.817 106.446 149.934 106.342 150.068 106.265C150.203 106.188 150.353 106.141 150.507 106.126C150.661 106.112 150.817 106.13 150.964 106.18L203.667 117.298C203.821 117.312 203.971 117.358 204.106 117.433C204.241 117.509 204.359 117.613 204.451 117.737C204.544 117.862 204.608 118.005 204.642 118.156C204.675 118.308 204.675 118.464 204.643 118.616C204.611 118.768 204.547 118.911 204.456 119.036C204.364 119.161 204.248 119.266 204.113 119.342C203.978 119.419 203.829 119.466 203.674 119.481C203.52 119.496 203.364 119.477 203.217 119.427Z" fill="#0AB34E"/>
<path d="M202.168 124.401L149.465 113.283C149.311 113.269 149.161 113.223 149.026 113.148C148.891 113.072 148.773 112.968 148.681 112.844C148.588 112.719 148.523 112.576 148.49 112.425C148.457 112.273 148.457 112.117 148.489 111.965C148.521 111.813 148.585 111.67 148.676 111.545C148.768 111.42 148.884 111.315 149.019 111.239C149.154 111.162 149.303 111.115 149.458 111.1C149.612 111.085 149.768 111.104 149.915 111.154L202.617 122.272C202.772 122.285 202.922 122.331 203.057 122.407C203.192 122.483 203.31 122.586 203.402 122.711C203.494 122.836 203.559 122.978 203.592 123.13C203.625 123.281 203.626 123.438 203.594 123.59C203.562 123.741 203.498 123.885 203.407 124.01C203.315 124.135 203.198 124.239 203.064 124.316C202.929 124.393 202.779 124.44 202.625 124.455C202.471 124.469 202.315 124.451 202.168 124.401Z" fill="#0AB34E"/>
<path d="M201.122 129.373L148.419 118.255C148.135 118.195 147.886 118.024 147.727 117.781C147.569 117.537 147.513 117.241 147.573 116.956C147.633 116.672 147.804 116.423 148.047 116.264C148.291 116.105 148.587 116.05 148.872 116.11L201.574 127.228C201.859 127.288 202.108 127.458 202.266 127.702C202.425 127.946 202.481 128.242 202.421 128.527C202.361 128.811 202.19 129.06 201.946 129.219C201.703 129.377 201.406 129.433 201.122 129.373Z" fill="#0AB34E"/>
<path d="M203.945 79.4985L165.976 71.4888C165.471 71.378 165.03 71.0733 164.748 70.6402C164.466 70.2071 164.365 69.6805 164.468 69.1739L171.848 34.189C171.959 33.6841 172.264 33.243 172.697 32.9608C173.13 32.6786 173.656 32.578 174.163 32.6806L212.132 40.6904C212.637 40.8011 213.078 41.1059 213.36 41.539C213.642 41.972 213.743 42.4987 213.64 43.0053L206.26 77.9901C206.149 78.495 205.845 78.9362 205.412 79.2183C204.978 79.5005 204.452 79.6012 203.945 79.4985ZM173.835 34.2348C173.74 34.2148 173.642 34.2333 173.56 34.2862C173.479 34.3391 173.422 34.4221 173.402 34.5169L166.022 69.5017C166.006 69.5961 166.026 69.693 166.079 69.7732C166.131 69.8534 166.211 69.911 166.304 69.9346L204.273 77.9443C204.367 77.9603 204.464 77.9401 204.545 77.8878C204.625 77.8356 204.682 77.7551 204.706 77.6623L212.086 42.6774C212.106 42.5826 212.088 42.4838 212.035 42.4026C211.982 42.3214 211.899 42.2645 211.804 42.2445L173.835 34.2348Z" fill="#C6C6C6"/>
<path d="M166.649 95.4617L167.284 97.917L169.664 98.7925L167.51 100.156L167.414 102.685L165.466 101.072L163.016 101.757L163.95 99.4054L162.546 97.2909L165.077 97.4515L166.649 95.4617Z" fill="#0AB34E"/>
<path d="M175.65 97.3612L176.284 99.8164L178.664 100.692L176.51 102.056L176.415 104.584L174.466 102.972L172.032 103.66L172.966 101.308L171.546 99.1903L174.077 99.3509L175.65 97.3612Z" fill="#0AB34E"/>
<path d="M184.647 99.2586L185.282 101.714L187.662 102.589L185.523 103.956L185.428 106.485L183.464 104.869L181.03 105.557L181.964 103.206L180.544 101.088L183.075 101.248L184.647 99.2586Z" fill="#0AB34E"/>
<path d="M193.648 90.1571L194.282 92.6123L196.663 93.4878L194.524 94.8548L194.429 97.3834L192.464 95.7677L190.03 96.4555L190.965 94.1039L189.544 91.9862L192.091 92.15L193.648 90.1571Z" fill="#0AB34E"/>
<path opacity="0.2" d="M155.715 130.913H46.7352L54.439 19.2803H159.639L155.715 130.913Z" fill="#99BBEB"/>
<path d="M151 0H61V148H151V0Z" fill="#0AB34E"/>
<path d="M149.41 1.31445H63.1279V146.866H149.41V1.31445Z" fill="#FAFAFA"/>
<path d="M98.2137 31.8911C98.1501 31.7005 96.6411 23.0279 96.4664 19.6605C96.2917 16.2931 101.883 15.8007 101.883 15.8007C101.883 15.8007 106.457 13.3387 109.777 14.6094C112.781 15.7079 115.29 17.8502 116.846 20.6453C118.355 23.2979 115.511 31.5576 115.511 31.5576L98.2137 31.8911Z" fill="#2E2D3D"/>
<path d="M87.8432 59.7367C87.8114 59.5937 88.2244 56.1786 88.2403 56.0516C89.0027 48.8561 97.866 46.8389 106.697 46.8389C117.086 46.8389 124.122 48.7449 125.25 56.2104C125.282 56.4328 125.885 59.8478 125.854 60.0861C106.602 60.3402 87.8432 59.7367 87.8432 59.7367Z" fill="#D5E1E8"/>
<path d="M108.477 52.4116C107.445 53.9364 106.698 54 105.586 52.4116C104.697 51.1567 101.727 48.2976 101.727 46.8363L102.95 32.3819C102.95 31.6826 103.227 31.0119 103.722 30.5174C104.216 30.0229 104.887 29.7451 105.586 29.7451H108.477C109.175 29.7493 109.843 30.0284 110.337 30.522C110.831 31.0156 111.11 31.6838 111.114 32.3819L111.686 46.8363C111.686 48.2976 109.398 51.0614 108.477 52.4116Z" fill="#F09959"/>
<path d="M108.476 29.7451H105.585C104.885 29.7451 104.215 30.0229 103.72 30.5174C103.226 31.0119 102.948 31.6826 102.948 32.3819L101.884 45.2002C105.14 46.2486 109.54 44.136 111.478 41.8169L111.112 32.3819C111.108 31.6838 110.829 31.0156 110.335 30.522C109.842 30.0284 109.174 29.7493 108.476 29.7451Z" fill="#E38540"/>
<path d="M97.0715 47.9021L101.725 56.4954C101.725 56.4954 104.219 54.4463 104.458 54.8434C104.696 55.2405 104.013 60.3075 104.013 60.3075C104.013 60.3075 109.556 60.3869 109.795 60.1487C110.033 59.9104 108.667 54.6369 109.239 54.6369C109.81 54.6369 111.478 56.1618 111.478 56.1618L116.672 47.9021L115.529 47.6162L107.031 52.1908L97.9292 47.7115L97.0715 47.9021Z" fill="#BDCCD4"/>
<path d="M102.393 51.8547L105.84 54.1738L104.775 60.3209L109.429 60.0508L108.27 54.4597L111.129 51.8547L109.795 50.584H103.743L102.393 51.8547Z" fill="#D54A41"/>
<path d="M101.965 43.6754L97.692 47.7417C97.692 47.7417 102.044 55.4772 102.282 55.4772C102.521 55.4772 105.983 51.2203 105.983 51.2203L108.191 51.1727L111.686 54.8419L115.736 47.6623L111.606 43.2783C111.606 43.2783 108.064 50.1084 107.429 50.2673C106.793 50.4261 106.778 50.5055 106.253 50.1084C105.729 49.7113 101.965 43.6754 101.965 43.6754Z" fill="#D5E1E8"/>
<path d="M107.029 41.8348C111.871 41.8348 115.797 36.487 115.797 29.8901C115.797 23.2932 111.871 17.9453 107.029 17.9453C102.186 17.9453 98.2609 23.2932 98.2609 29.8901C98.2609 36.487 102.186 41.8348 107.029 41.8348Z" fill="#F09959"/>
<path d="M99.1684 29.7134C99.9784 31.4289 99.7084 33.2714 98.5648 33.8274C97.4211 34.3833 95.8168 33.4144 94.9909 31.683C94.1649 29.9517 94.4349 28.125 95.5945 27.5691C96.754 27.0132 98.3424 27.9821 99.1684 29.7134Z" fill="#F09959"/>
<path d="M114.495 29.7134C113.685 31.4289 113.955 33.2714 115.098 33.8274C116.242 34.3833 117.846 33.4144 118.672 31.683C119.498 29.9517 119.212 28.125 118.069 27.5691C116.925 27.0132 115.321 27.9821 114.495 29.7134Z" fill="#F09959"/>
<path d="M101.883 21.7725C105.505 19.2469 107.125 19.6599 109.841 23.8215C112.557 27.9831 115.798 28.0467 115.798 28.0467L116.211 23.7421C116.211 23.7421 112.176 15.9272 106.76 16.9438C101.343 17.9603 98.2616 22.8526 98.2616 22.8526C98.2616 22.8526 97.9916 31.9859 98.754 32.3036C99.5165 32.6213 99.5959 29.3492 100.136 28.6979C100.676 28.0467 99.5959 24.9016 100.327 23.4562C101.057 22.0108 101.883 21.7725 101.883 21.7725Z" fill="#2E2D3D"/>
<path d="M113.51 26.457C114.765 27.8389 114.288 33.3348 114.955 33.2713C115.623 33.2077 115.861 28.0295 115.67 27.4895C115.48 26.9494 113.51 26.457 113.51 26.457Z" fill="#2E2D3D"/>
<path d="M126.519 78.623H86.2686C85.5861 78.623 84.9316 78.3519 84.449 77.8693C83.9665 77.3867 83.6954 76.7322 83.6954 76.0498C83.6954 75.3673 83.9665 74.7128 84.449 74.2302C84.9316 73.7477 85.5861 73.4766 86.2686 73.4766H126.519C127.201 73.4766 127.856 73.7477 128.338 74.2302C128.821 74.7128 129.092 75.3673 129.092 76.0498C129.092 76.7322 128.821 77.3867 128.338 77.8693C127.856 78.3519 127.201 78.623 126.519 78.623Z" fill="#0AB34E"/>
<path d="M121.516 86.5321H91.2724C90.59 86.5321 89.9355 86.261 89.4529 85.7785C88.9703 85.2959 88.6992 84.6414 88.6992 83.9589C88.6992 83.2765 88.9703 82.622 89.4529 82.1394C89.9355 81.6568 90.59 81.3857 91.2724 81.3857H121.516C122.198 81.3857 122.852 81.6568 123.335 82.1394C123.818 82.622 124.089 83.2765 124.089 83.9589C124.089 84.6414 123.818 85.2959 123.335 85.7785C122.852 86.261 122.198 86.5321 121.516 86.5321Z" fill="#0AB34E"/>
<path d="M143.182 114.978H69.6078C69.2118 114.978 68.832 114.821 68.552 114.541C68.272 114.261 68.1147 113.881 68.1147 113.485C68.1147 113.089 68.272 112.71 68.552 112.43C68.832 112.149 69.2118 111.992 69.6078 111.992H143.182C143.578 111.992 143.958 112.149 144.238 112.43C144.518 112.71 144.675 113.089 144.675 113.485C144.675 113.881 144.518 114.261 144.238 114.541C143.958 114.821 143.578 114.978 143.182 114.978Z" fill="#0AB34E"/>
<path d="M143.182 121.921H69.6078C69.4117 121.921 69.2176 121.882 69.0364 121.807C68.8552 121.732 68.6906 121.622 68.552 121.483C68.4134 121.345 68.3034 121.18 68.2283 120.999C68.1533 120.818 68.1147 120.624 68.1147 120.428C68.1147 120.232 68.1533 120.037 68.2283 119.856C68.3034 119.675 68.4134 119.511 68.552 119.372C68.6906 119.233 68.8552 119.123 69.0364 119.048C69.2176 118.973 69.4117 118.935 69.6078 118.935H143.182C143.578 118.935 143.958 119.092 144.238 119.372C144.518 119.652 144.675 120.032 144.675 120.428C144.675 120.824 144.518 121.203 144.238 121.483C143.958 121.763 143.578 121.921 143.182 121.921Z" fill="#0AB34E"/>
<path d="M143.182 128.863H69.6078C69.2118 128.863 68.832 128.706 68.552 128.426C68.272 128.146 68.1147 127.766 68.1147 127.37C68.1147 126.974 68.272 126.594 68.552 126.314C68.832 126.034 69.2118 125.877 69.6078 125.877H143.182C143.578 125.877 143.958 126.034 144.238 126.314C144.518 126.594 144.675 126.974 144.675 127.37C144.675 127.766 144.518 128.146 144.238 128.426C143.958 128.706 143.578 128.863 143.182 128.863Z" fill="#0AB34E"/>
<path d="M132.889 61.1021H79.9002C79.2725 61.1021 78.6705 60.8527 78.2266 60.4089C77.7828 59.965 77.5334 59.363 77.5334 58.7353V9.8921C77.5334 9.26441 77.7828 8.66243 78.2266 8.21858C78.6705 7.77474 79.2725 7.52539 79.9002 7.52539H132.889C133.518 7.52538 134.122 7.77422 134.568 8.21761C135.015 8.661 135.268 9.26296 135.272 9.8921V58.7353C135.268 59.3645 135.015 59.9664 134.568 60.4098C134.122 60.8532 133.518 61.1021 132.889 61.1021ZM79.9002 9.11379C79.6937 9.11379 79.4958 9.19579 79.3498 9.34175C79.2038 9.48771 79.1218 9.68568 79.1218 9.8921V58.7353C79.1218 58.9418 79.2038 59.1397 79.3498 59.2857C79.4958 59.4317 79.6937 59.5137 79.9002 59.5137H132.889C133.097 59.5137 133.297 59.4322 133.445 59.2867C133.594 59.1412 133.679 58.9432 133.683 58.7353V9.8921C133.679 9.68423 133.594 9.48628 133.445 9.34076C133.297 9.19524 133.097 9.11375 132.889 9.11379H79.9002Z" fill="#C6C6C6"/>
<path d="M81.1727 93.252L82.6975 96.3493L86.1285 96.8576L83.6506 99.272L84.2383 102.687L81.1727 101.083L78.1071 102.687L78.6789 99.272L76.201 96.8576L79.6319 96.3493L81.1727 93.252Z" fill="#0AB34E"/>
<path d="M93.7338 93.252L95.2587 96.3493L98.6896 96.8576L96.2117 99.272L96.7994 102.687L93.7338 101.083L90.6682 102.687L91.24 99.272L88.7621 96.8576L92.1931 96.3493L93.7338 93.252Z" fill="#0AB34E"/>
<path d="M106.301 93.252L107.826 96.3493L111.257 96.8576L108.779 99.272L109.366 102.687L106.301 101.083L103.235 102.687L103.807 99.272L101.329 96.8576L104.76 96.3493L106.301 93.252Z" fill="#0AB34E"/>
<path d="M118.865 93.252L120.39 96.3493L123.821 96.8576L121.343 99.272L121.93 102.687L118.865 101.083L115.799 102.687L116.387 99.272L113.893 96.8576L117.324 96.3493L118.865 93.252Z" fill="#0AB34E"/>
<path d="M131.619 93.252L133.16 96.3493L136.59 96.8576L134.113 99.272L134.7 102.687L131.619 101.083L128.553 102.687L129.141 99.272L126.663 96.8576L130.094 96.3493L131.619 93.252Z" fill="#0AB34E"/>
</svg>
