<svg width="200" height="150" viewBox="0 0 230 230" fill="none" xmlns="http://www.w3.org/2000/svg">
<path d="M172.5 172.5C204.256 140.744 204.256 89.2564 172.5 57.5C140.744 25.7436 89.2564 25.7436 57.5 57.5C25.7436 89.2564 25.7436 140.744 57.5 172.5C89.2564 204.256 140.744 204.256 172.5 172.5Z" fill="#F5FFF9"/>
<path d="M115.042 197.669C151.305 197.669 180.702 194.471 180.702 190.525C180.702 186.58 151.305 183.382 115.042 183.382C78.7789 183.382 49.3818 186.58 49.3818 190.525C49.3818 194.471 78.7789 197.669 115.042 197.669Z" fill="#E9FFF2"/>
<path d="M166.665 118.802V178.648C166.665 179.36 166.522 180.066 166.243 180.723C165.965 181.379 165.558 181.973 165.045 182.468H165.004C164.02 183.377 162.73 183.882 161.391 183.88H68.6109C67.2716 183.882 65.9812 183.377 64.9977 182.468H64.9562C64.4362 181.976 64.0211 181.384 63.7356 180.727C63.4502 180.071 63.3003 179.363 63.2949 178.648V118.802C63.2987 117.15 63.6608 115.518 64.3563 114.019C65.0518 112.521 66.0641 111.191 67.3234 110.122L109.145 74.6545C110.773 73.2513 112.851 72.4795 115.001 72.4795C117.15 72.4795 119.228 73.2513 120.857 74.6545L162.678 110.122C163.932 111.193 164.938 112.524 165.626 114.023C166.315 115.522 166.669 117.152 166.665 118.802Z" fill="#1a41b6"/>
<g style="mix-blend-mode:multiply" opacity="0.5">
<g style="mix-blend-mode:multiply" opacity="0.5">
<path d="M143.925 69.7073L75.2363 82.1901L89.0565 158.237L157.745 145.755L143.925 69.7073Z" fill="#808080"/>
</g>
</g>
<path d="M142.6 66.5892L73.9121 79.0719L87.7323 155.119L156.42 142.637L142.6 66.5892Z" fill="white"/>
<g clip-path="url(#clip0_609_853)">
<path d="M111.925 99.3378L106.926 95.5642L107.988 94.1455L111.578 96.8549L117.307 89.2653L118.718 90.3382M111.841 85.9326C110.689 86.0936 109.579 86.48 108.577 87.0697C107.574 87.6594 106.697 88.4408 105.996 89.3693C104.581 91.2446 103.968 93.6053 104.294 95.9321C104.619 98.2589 105.855 100.361 107.73 101.777C108.659 102.477 109.716 102.988 110.842 103.281C111.968 103.573 113.141 103.64 114.293 103.479C116.62 103.154 118.722 101.918 120.138 100.042C121.553 98.1672 122.165 95.8065 121.84 93.4797C121.679 92.3276 121.293 91.2184 120.703 90.2156C120.113 89.2128 119.332 88.336 118.403 87.6352C117.475 86.9344 116.417 86.4233 115.291 86.1312C114.165 85.8391 112.993 85.7716 111.841 85.9326Z" fill="#1a41b6"/>
</g>
<path d="M136.215 106.491L94.1309 114.22C93.2992 114.373 92.7488 115.171 92.9016 116.003L93.7045 120.374C93.8572 121.206 94.6553 121.756 95.487 121.603L137.571 113.874C138.403 113.721 138.953 112.923 138.8 112.091L137.997 107.72C137.845 106.888 137.047 106.338 136.215 106.491Z" fill="white"/>
<path d="M136.176 106.609L93.9254 114.287C93.0905 114.439 92.5366 115.239 92.6883 116.074L93.4859 120.462C93.6376 121.297 94.4375 121.851 95.2725 121.699L137.523 114.021C138.358 113.869 138.912 113.069 138.76 112.234L137.963 107.846C137.811 107.011 137.011 106.457 136.176 106.609Z" fill="#E7ECF3"/>
<path d="M138.617 118.154L96.3659 125.832C95.5309 125.984 94.977 126.783 95.1288 127.618L95.9263 132.007C96.078 132.842 96.8779 133.396 97.7129 133.244L139.964 125.566C140.799 125.414 141.353 124.614 141.201 123.779L140.403 119.391C140.252 118.556 139.452 118.002 138.617 118.154Z" fill="white"/>
<path d="M138.217 117.736L95.966 125.414C95.131 125.566 94.5771 126.366 94.7289 127.201L95.5264 131.589C95.6781 132.424 96.478 132.978 97.313 132.827L139.564 125.148C140.399 124.997 140.953 124.197 140.801 123.362L140.003 118.973C139.852 118.138 139.052 117.584 138.217 117.736Z" fill="#E7ECF3"/>
<g style="mix-blend-mode:multiply" opacity="0.5">
<g style="mix-blend-mode:multiply" opacity="0.5">
<path d="M140.657 129.281L98.4064 136.959C97.5714 137.111 97.0175 137.911 97.1693 138.746L97.9668 143.134C98.1186 143.969 98.9185 144.523 99.7534 144.372L142.004 136.693C142.839 136.542 143.393 135.742 143.241 134.907L142.444 130.518C142.292 129.683 141.492 129.129 140.657 129.281Z" fill="#000007"/>
</g>
</g>
<path d="M140.257 128.863L98.006 136.541C97.171 136.693 96.6172 137.492 96.7689 138.327L97.5664 142.716C97.7182 143.551 98.5181 144.105 99.3531 143.953L141.604 136.275C142.439 136.123 142.993 135.323 142.841 134.488L142.043 130.1C141.892 129.265 141.092 128.711 140.257 128.863Z" fill="#1a41b6"/>
<path d="M100.465 128.437C100.495 128.585 100.495 128.737 100.465 128.884C100.435 129.032 100.376 129.171 100.29 129.295C100.205 129.419 100.096 129.525 99.9689 129.606C99.842 129.687 99.7001 129.741 99.5517 129.766C99.4042 129.796 99.2522 129.796 99.1047 129.766C98.9573 129.736 98.8173 129.677 98.6933 129.591C98.5693 129.506 98.4637 129.397 98.3829 129.27C98.302 129.143 98.2475 129.001 98.2227 128.852C98.1954 128.705 98.1974 128.554 98.2286 128.408C98.2597 128.261 98.3194 128.122 98.4043 127.999C98.4891 127.875 98.5974 127.77 98.723 127.688C98.8487 127.607 98.9891 127.551 99.1364 127.523C99.2836 127.496 99.4348 127.498 99.5813 127.529C99.7278 127.561 99.8667 127.62 99.9901 127.705C100.113 127.79 100.219 127.898 100.301 128.024C100.382 128.149 100.438 128.29 100.465 128.437Z" fill="#091A50"/>
<path d="M104.285 127.772C104.313 127.989 104.278 128.209 104.182 128.406C104.087 128.603 103.936 128.767 103.748 128.88C103.561 128.992 103.344 129.047 103.126 129.037C102.907 129.028 102.696 128.955 102.519 128.828C102.341 128.7 102.205 128.523 102.126 128.319C102.048 128.115 102.031 127.892 102.077 127.679C102.124 127.465 102.232 127.27 102.388 127.116C102.544 126.963 102.742 126.859 102.956 126.817C103.257 126.779 103.561 126.857 103.808 127.034C104.054 127.211 104.225 127.475 104.285 127.772Z" fill="#091A50"/>
<path d="M108.106 127.066C108.144 127.368 108.066 127.672 107.889 127.918C107.712 128.164 107.448 128.335 107.151 128.395C106.934 128.424 106.714 128.388 106.517 128.293C106.32 128.197 106.156 128.046 106.044 127.859C105.931 127.671 105.877 127.455 105.886 127.236C105.895 127.018 105.968 126.807 106.096 126.629C106.223 126.451 106.4 126.315 106.604 126.237C106.808 126.158 107.031 126.141 107.244 126.188C107.458 126.234 107.654 126.342 107.807 126.498C107.96 126.654 108.064 126.852 108.106 127.066Z" fill="#091A50"/>
<path d="M111.886 126.361C111.913 126.508 111.911 126.659 111.88 126.805C111.849 126.952 111.789 127.091 111.704 127.214C111.533 127.463 111.269 127.634 110.972 127.69C110.825 127.717 110.674 127.715 110.527 127.684C110.381 127.652 110.242 127.593 110.118 127.508C109.869 127.337 109.698 127.073 109.643 126.776C109.606 126.475 109.683 126.171 109.86 125.924C110.037 125.678 110.301 125.507 110.598 125.447C110.743 125.417 110.893 125.417 111.038 125.448C111.183 125.478 111.32 125.538 111.44 125.624C111.561 125.71 111.663 125.819 111.74 125.946C111.816 126.073 111.866 126.214 111.886 126.361Z" fill="#091A50"/>
<path d="M115.707 125.654C115.736 125.802 115.736 125.954 115.706 126.101C115.676 126.249 115.617 126.389 115.532 126.513C115.446 126.637 115.337 126.742 115.21 126.823C115.083 126.904 114.941 126.958 114.793 126.983C114.645 127.013 114.493 127.013 114.346 126.983C114.198 126.953 114.059 126.894 113.935 126.808C113.811 126.723 113.705 126.614 113.624 126.487C113.543 126.36 113.489 126.218 113.464 126.07C113.409 125.772 113.474 125.465 113.645 125.216C113.817 124.967 114.08 124.796 114.378 124.741C114.675 124.686 114.982 124.751 115.231 124.922C115.481 125.094 115.651 125.357 115.707 125.654Z" fill="#091A50"/>
<path d="M119.528 124.99C119.558 125.138 119.558 125.29 119.528 125.437C119.498 125.585 119.438 125.725 119.353 125.849C119.268 125.973 119.158 126.078 119.031 126.159C118.904 126.24 118.763 126.294 118.614 126.319C118.318 126.368 118.013 126.301 117.766 126.13C117.518 125.96 117.346 125.7 117.285 125.406C117.23 125.108 117.295 124.801 117.467 124.552C117.638 124.303 117.901 124.132 118.199 124.077C118.496 124.022 118.803 124.087 119.053 124.258C119.302 124.43 119.473 124.693 119.528 124.99Z" fill="#091A50"/>
<path d="M123.348 124.284C123.385 124.501 123.356 124.724 123.267 124.925C123.177 125.126 123.031 125.297 122.845 125.415C122.659 125.533 122.443 125.594 122.223 125.59C122.003 125.587 121.789 125.518 121.607 125.393C121.426 125.269 121.285 125.093 121.203 124.889C121.12 124.685 121.1 124.461 121.144 124.245C121.188 124.03 121.294 123.832 121.45 123.676C121.606 123.52 121.804 123.414 122.019 123.37C122.167 123.34 122.319 123.34 122.466 123.37C122.614 123.401 122.754 123.46 122.878 123.545C123.002 123.63 123.107 123.74 123.188 123.867C123.269 123.994 123.323 124.136 123.348 124.284Z" fill="#091A50"/>
<path d="M127.169 123.578C127.199 123.726 127.199 123.878 127.169 124.025C127.139 124.173 127.079 124.313 126.994 124.437C126.909 124.561 126.799 124.666 126.673 124.747C126.546 124.828 126.404 124.882 126.255 124.907C126.108 124.935 125.957 124.933 125.81 124.901C125.664 124.87 125.525 124.81 125.402 124.726C125.152 124.554 124.981 124.291 124.926 123.994C124.871 123.696 124.937 123.389 125.108 123.14C125.279 122.891 125.543 122.72 125.84 122.665C126.137 122.616 126.441 122.683 126.689 122.854C126.936 123.024 127.109 123.284 127.169 123.578Z" fill="#091A50"/>
<g style="mix-blend-mode:multiply">
<path d="M63.2949 123.079L109.809 142.723C111.451 143.422 113.217 143.783 115.001 143.783C116.785 143.783 118.551 143.422 120.192 142.723L166.665 123.079V161.122H63.2949V123.079Z" fill="#BDDDFF"/>
</g>
<path d="M109.145 148.911L64.9977 186.372H64.9562C64.4362 185.88 64.0211 185.288 63.7356 184.631C63.4502 183.975 63.3003 183.267 63.2949 182.551V122.664L107.65 148.039L109.145 148.911Z" fill="#6ABFD2"/>
<path d="M166.664 122.664V182.51C166.664 183.223 166.521 183.928 166.242 184.585C165.964 185.241 165.557 185.835 165.044 186.331H165.003L120.855 148.911L122.351 148.039L166.664 122.664Z" fill="#6ABFD2"/>
<path d="M166.664 123.079V182.925C166.664 183.638 166.521 184.344 166.242 185C165.964 185.657 165.557 186.25 165.044 186.746H165.003L120.855 149.327L122.351 148.455L166.664 123.079Z" fill="#1a41b6"/>
<path d="M109.145 149.327L64.9977 186.788H64.9562C64.4362 186.295 64.0211 185.703 63.7356 185.047C63.4502 184.39 63.3003 183.683 63.2949 182.967V123.079L107.65 148.455L109.145 149.327Z" fill="#1a41b6"/>
<g style="mix-blend-mode:multiply">
<path d="M109.144 149.327L64.9971 186.788H64.9556L107.649 148.496L109.144 149.327Z" fill="#BDDDFF"/>
</g>
<g style="mix-blend-mode:multiply">
<path d="M165.044 186.746H165.003L120.855 149.326L122.351 148.454L165.044 186.746Z" fill="#BDDDFF"/>
</g>
<path d="M165.003 186.372C164.02 187.281 162.729 187.786 161.39 187.784H68.6102C67.271 187.786 65.9806 187.281 64.9971 186.372L109.144 148.912C110.773 147.508 112.851 146.737 115 146.737C117.15 146.737 119.228 147.508 120.856 148.912L165.003 186.372Z" fill="#6ABFD2"/>
<path d="M165.003 186.788C164.02 187.697 162.729 188.201 161.39 188.2H68.6102C67.271 188.201 65.9806 187.697 64.9971 186.788L109.144 149.327C110.773 147.924 112.851 147.152 115 147.152C117.15 147.152 119.228 147.924 120.856 149.327L165.003 186.788Z" fill="#1a41b6"/>
<defs>
<clipPath id="clip0_609_853">
<rect width="21.2605" height="21.2605" fill="white" transform="translate(101.068 85.6494) rotate(-7.95644)"/>
</clipPath>
</defs>
</svg>
