<svg width="130" height="169" viewBox="0 0 130 169" fill="none" xmlns="http://www.w3.org/2000/svg">
<g id="Frame 5182" clip-path="url(#clip0_188_1132)">
<path id="Vector" d="M22.5766 99.0154C21.8752 95.574 22.4127 91.9955 24.094 88.9119C24.536 88.1876 25.0952 87.3955 25.9345 87.2238C26.1791 87.1767 26.4324 87.2268 26.6407 87.3634C26.9397 87.5427 27.0255 87.9623 27.0652 88.3695C27.1831 90.3346 26.2677 92.2706 25.2169 93.9721C24.1661 95.6736 23.5969 97.0579 22.5766 99.0154Z" fill="#C3ECFE"/>
<path id="Vector_2" d="M26.6887 106.612C25.9014 103.311 26.2042 99.8442 27.5519 96.7299C27.8675 95.9221 28.3342 95.1052 29.0595 94.8038C29.267 94.72 29.4973 94.7116 29.7104 94.7799C29.9755 94.9005 30.0614 95.3201 30.1134 95.6811C30.3486 97.5784 29.6183 99.5641 28.7863 101.374C27.9544 103.183 27.4777 104.593 26.6887 106.612Z" fill="#C3ECFE"/>
<path id="Vector_3" opacity="0.4" d="M21.7394 148.641C21.443 149.146 15.0303 145.944 7.43818 141.489C-0.153968 137.033 -6.07684 132.996 -5.7804 132.491C-5.48395 131.986 0.901976 135.202 8.50796 139.666C16.1139 144.129 22.0359 148.136 21.7394 148.641Z" fill="#A1D7E5"/>
<path id="Vector_4" d="M88.9185 13.8722C87.6917 13.5435 86.3846 13.7156 85.2847 14.3506C84.1849 14.9856 83.3823 16.0315 83.0536 17.2583L81.4671 23.1789L90.7181 25.6577L92.3045 19.7371C92.6333 18.5103 92.4612 17.2032 91.8262 16.1034C91.1911 15.0035 90.1452 14.2009 88.9185 13.8722ZM86.9726 21.1342C86.4603 20.9969 86.0002 20.7108 85.6505 20.3121C85.3008 19.9133 85.0772 19.4198 85.008 18.894C84.9387 18.3681 85.027 17.8336 85.2616 17.3579C85.4962 16.8822 85.8665 16.4868 86.3258 16.2216C86.7852 15.9564 87.3128 15.8334 87.8421 15.868C88.3713 15.9027 88.8784 16.0936 89.2992 16.4165C89.7199 16.7393 90.0355 17.1797 90.206 17.682C90.3765 18.1842 90.3942 18.7257 90.2569 19.238C90.0729 19.925 89.6234 20.5107 89.0075 20.8663C88.3916 21.2219 87.6596 21.3183 86.9726 21.1342Z" fill="#E8505B"/>
<g id="Group" opacity="0.45">
<path id="Vector_5" opacity="0.45" d="M90.2568 19.2385C90.4409 18.5516 90.3445 17.8196 89.9889 17.2037C89.6333 16.5877 89.0476 16.1383 88.3606 15.9542L87.9443 15.8427C88.3142 15.7199 88.7143 15.7226 89.0826 15.8502C89.4227 15.9413 89.7416 16.0986 90.021 16.313C90.3004 16.5273 90.5348 16.7947 90.7109 17.0996C90.8869 17.4046 91.0012 17.7413 91.0472 18.0904C91.0932 18.4396 91.0699 18.7944 90.9788 19.1345C90.6317 20.4297 89.7859 20.9962 88.7063 20.9548C89.068 20.7894 89.392 20.5518 89.6587 20.2567C89.9253 19.9616 90.1288 19.6151 90.2568 19.2385ZM83.0158 22.9499L84.6022 17.0293C84.7798 16.2715 85.145 15.5705 85.6642 14.9906C86.1834 14.4107 86.84 13.9706 87.5736 13.7107C86.5378 13.7335 85.5372 14.0917 84.7222 14.7314C83.9072 15.3712 83.3216 16.258 83.0535 17.2588L81.467 23.1794L90.718 25.6582L90.8791 25.0569L83.0158 22.9499Z" fill="#B03D44"/>
</g>
<g id="Vector_6" filter="url(#filter0_d_188_1132)">
<path d="M121.268 36.546L47.4324 16.7619C45.0891 16.134 42.6699 17.5641 42.029 19.9561L12.5187 130.09C11.8778 132.482 13.2578 134.93 15.6011 135.558L89.4365 155.342C91.7798 155.97 94.199 154.54 94.84 152.148L124.35 42.014C124.991 39.622 123.611 37.1739 121.268 36.546Z" fill="#3E89CC"/>
</g>
<path id="Vector_7" d="M122.322 39.6294L45.3539 19.0059L14.9652 132.418L91.9332 153.042L122.322 39.6294Z" fill="#C3ECFE"/>
<path id="Vector_8" d="M118.432 42.3047L47.3848 23.2676L18.8527 129.751L89.9001 148.788L118.432 42.3047Z" fill="white"/>
<path id="Vector_9" d="M112.578 33.993L111.339 38.6185L55.3242 23.6094L56.5636 18.9839C56.669 18.6577 56.8188 18.3475 57.0089 18.0622C57.3927 17.4587 57.9594 16.9939 58.6262 16.7355C59.2931 16.4771 60.0251 16.4388 60.7152 16.6261L110.208 29.8876C111.067 30.1177 111.799 30.6795 112.243 31.4494C112.688 32.2193 112.808 33.1343 112.578 33.993Z" fill="#E8505B"/>
<path id="Vector_10" opacity="0.45" d="M111.649 37.4621L111.339 38.6185L55.3242 23.6094L56.2165 20.2791C56.4239 19.5211 56.6888 18.7799 57.0089 18.0622C57.3927 17.4587 57.9594 16.9939 58.6262 16.7355C59.2931 16.4771 60.0251 16.4388 60.7152 16.6261L61.0853 16.7252C59.9362 17.3744 59.0819 18.4418 58.7004 19.7052L57.808 23.0356L111.649 37.4621Z" fill="#B03D44"/>
<g id="Group_2" opacity="0.15">
<path id="Vector_11" opacity="0.45" d="M64.0653 39.834L75.5828 42.9201" stroke="#0964AF" stroke-width="2.64423" stroke-linecap="round" stroke-linejoin="round"/>
<path id="Vector_12" opacity="0.45" d="M100.494 53.5615L109.282 55.9164" stroke="#0964AF" stroke-width="2.64423" stroke-linecap="round" stroke-linejoin="round"/>
<path id="Vector_13" opacity="0.45" d="M63.0737 43.5342L96.701 52.5446" stroke="#0964AF" stroke-width="2.64423" stroke-linecap="round" stroke-linejoin="round"/>
<path id="Vector_14" opacity="0.45" d="M62.0945 47.1885L108.303 59.57" stroke="#0964AF" stroke-width="2.64423" stroke-linecap="round" stroke-linejoin="round"/>
<path id="Vector_15" opacity="0.45" d="M92.6027 59.3291L107.312 63.2704" stroke="#0964AF" stroke-width="2.64423" stroke-linecap="round" stroke-linejoin="round"/>
<path id="Vector_16" opacity="0.45" d="M61.1029 50.8896L88.9483 58.3508" stroke="#0964AF" stroke-width="2.64423" stroke-linecap="round" stroke-linejoin="round"/>
<path id="Vector_17" opacity="0.45" d="M79.3757 43.9365L110.274 52.2157" stroke="#0964AF" stroke-width="2.64423" stroke-linecap="round" stroke-linejoin="round"/>
</g>
<g id="Group_3" opacity="0.15">
<path id="Vector_18" opacity="0.45" d="M56.9758 66.292L68.4933 69.3781" stroke="#0964AF" stroke-width="2.64423" stroke-linecap="round" stroke-linejoin="round"/>
<path id="Vector_19" opacity="0.45" d="M93.4167 79.9736L102.205 82.3285" stroke="#0964AF" stroke-width="2.64423" stroke-linecap="round" stroke-linejoin="round"/>
<path id="Vector_20" opacity="0.45" d="M55.9966 69.9463L89.6238 78.9567" stroke="#0964AF" stroke-width="2.64423" stroke-linecap="round" stroke-linejoin="round"/>
<path id="Vector_21" opacity="0.45" d="M55.0051 73.6465L101.214 86.028" stroke="#0964AF" stroke-width="2.64423" stroke-linecap="round" stroke-linejoin="round"/>
<path id="Vector_22" opacity="0.45" d="M85.5133 85.7871L100.222 89.7284" stroke="#0964AF" stroke-width="2.64423" stroke-linecap="round" stroke-linejoin="round"/>
<path id="Vector_23" opacity="0.45" d="M54.0137 77.3467L81.8591 84.8078" stroke="#0964AF" stroke-width="2.64423" stroke-linecap="round" stroke-linejoin="round"/>
<path id="Vector_24" opacity="0.45" d="M72.2864 70.3945L103.185 78.6737" stroke="#0964AF" stroke-width="2.64423" stroke-linecap="round" stroke-linejoin="round"/>
</g>
<g id="Group_4" opacity="0.15">
<path id="Vector_25" opacity="0.45" d="M50.1345 91.8242L61.652 94.9103" stroke="#0964AF" stroke-width="2.64423" stroke-linecap="round" stroke-linejoin="round"/>
<path id="Vector_26" opacity="0.45" d="M86.5759 105.506L95.3643 107.861" stroke="#0964AF" stroke-width="2.64423" stroke-linecap="round" stroke-linejoin="round"/>
<path id="Vector_27" opacity="0.45" d="M49.1555 95.4785L82.7828 104.489" stroke="#0964AF" stroke-width="2.64423" stroke-linecap="round" stroke-linejoin="round"/>
<path id="Vector_28" opacity="0.45" d="M48.1641 99.1787L94.3727 111.56" stroke="#0964AF" stroke-width="2.64423" stroke-linecap="round" stroke-linejoin="round"/>
<path id="Vector_29" opacity="0.45" d="M78.6844 111.273L93.3935 115.215" stroke="#0964AF" stroke-width="2.64423" stroke-linecap="round" stroke-linejoin="round"/>
<path id="Vector_30" opacity="0.45" d="M47.1851 102.833L75.0305 110.294" stroke="#0964AF" stroke-width="2.64423" stroke-linecap="round" stroke-linejoin="round"/>
<path id="Vector_31" opacity="0.45" d="M65.4452 95.9268L96.3434 104.206" stroke="#0964AF" stroke-width="2.64423" stroke-linecap="round" stroke-linejoin="round"/>
</g>
<g id="Group_5" opacity="0.15">
<path id="Vector_32" opacity="0.45" d="M43.1814 117.772L54.6988 120.859" stroke="#0964AF" stroke-width="2.64423" stroke-linecap="round" stroke-linejoin="round"/>
<path id="Vector_33" opacity="0.45" d="M79.6101 131.5L88.3985 133.855" stroke="#0964AF" stroke-width="2.64423" stroke-linecap="round" stroke-linejoin="round"/>
<path id="Vector_34" opacity="0.45" d="M42.1899 121.473L75.8172 130.483" stroke="#0964AF" stroke-width="2.64423" stroke-linecap="round" stroke-linejoin="round"/>
<path id="Vector_35" opacity="0.45" d="M41.2108 125.127L87.4194 137.509" stroke="#0964AF" stroke-width="2.64423" stroke-linecap="round" stroke-linejoin="round"/>
<path id="Vector_36" opacity="0.45" d="M71.7189 137.268L86.4279 141.209" stroke="#0964AF" stroke-width="2.64423" stroke-linecap="round" stroke-linejoin="round"/>
<path id="Vector_37" opacity="0.45" d="M40.2194 128.827L68.0648 136.288" stroke="#0964AF" stroke-width="2.64423" stroke-linecap="round" stroke-linejoin="round"/>
<path id="Vector_38" opacity="0.45" d="M58.4921 121.875L89.3903 130.154" stroke="#0964AF" stroke-width="2.64423" stroke-linecap="round" stroke-linejoin="round"/>
</g>
<path id="Vector_39" d="M59.5058 37.4227L50.8561 35.105C50.3197 34.9613 49.7682 35.2796 49.6245 35.8161L47.3105 44.4519C47.1668 44.9883 47.4852 45.5397 48.0216 45.6835L56.6713 48.0011C57.2077 48.1449 57.7592 47.8265 57.9029 47.2901L60.2168 38.6543C60.3606 38.1178 60.0422 37.5664 59.5058 37.4227Z" stroke="#2396B5" stroke-width="0.983111" stroke-miterlimit="10"/>
<path id="Vector_40" d="M52.4412 63.7869L43.7915 61.4693C43.2551 61.3255 42.7037 61.6439 42.5599 62.1803L40.246 70.8161C40.1022 71.3526 40.4206 71.904 40.957 72.0477L49.6067 74.3654C50.1432 74.5092 50.6946 74.1908 50.8383 73.6543L53.1523 65.0185C53.296 64.4821 52.9777 63.9307 52.4412 63.7869Z" stroke="#2396B5" stroke-width="0.983111" stroke-miterlimit="10"/>
<path id="Vector_41" d="M45.3766 90.1531L36.727 87.8355C36.1905 87.6917 35.6391 88.0101 35.4953 88.5465L33.1814 97.1823C33.0376 97.7188 33.356 98.2702 33.8925 98.4139L42.5421 100.732C43.0786 100.875 43.63 100.557 43.7737 100.021L46.0877 91.3848C46.2314 90.8483 45.9131 90.2969 45.3766 90.1531Z" stroke="#2396B5" stroke-width="0.983111" stroke-miterlimit="10"/>
<path id="Vector_42" d="M38.3122 116.518L29.6625 114.201C29.1261 114.057 28.5746 114.375 28.4309 114.912L26.1169 123.548C25.9732 124.084 26.2916 124.635 26.828 124.779L35.4777 127.097C36.0141 127.241 36.5656 126.922 36.7093 126.386L39.0232 117.75C39.167 117.214 38.8486 116.662 38.3122 116.518Z" stroke="#2396B5" stroke-width="0.983111" stroke-miterlimit="10"/>
<path id="Vector_43" d="M50.2629 38.6145L52.9518 44.4909L63.865 34.4758" stroke="#FFA829" stroke-width="2.94086" stroke-linecap="round" stroke-linejoin="round"/>
<path id="Vector_44" d="M43.2602 64.7483L45.9368 70.671L56.8623 60.6096" stroke="#FFA829" stroke-width="2.94086" stroke-linecap="round" stroke-linejoin="round"/>
</g>
<defs>
<filter id="filter0_d_188_1132" x="7.27676" y="14.0717" width="122.315" height="149.045" filterUnits="userSpaceOnUse" color-interpolation-filters="sRGB">
<feFlood flood-opacity="0" result="BackgroundImageFix"/>
<feColorMatrix in="SourceAlpha" type="matrix" values="0 0 0 0 0 0 0 0 0 0 0 0 0 0 0 0 0 0 127 0" result="hardAlpha"/>
<feOffset dy="2.54253"/>
<feGaussianBlur stdDeviation="2.54253"/>
<feComposite in2="hardAlpha" operator="out"/>
<feColorMatrix type="matrix" values="0 0 0 0 0 0 0 0 0 0 0 0 0 0 0 0 0 0 0.08 0"/>
<feBlend mode="normal" in2="BackgroundImageFix" result="effect1_dropShadow_188_1132"/>
<feBlend mode="normal" in="SourceGraphic" in2="effect1_dropShadow_188_1132" result="shape"/>
</filter>
<clipPath id="clip0_188_1132">
<rect width="93.3733" height="148.595" fill="white" transform="translate(38.8203 0.448242) rotate(15)"/>
</clipPath>
</defs>
</svg>
