<svg width="38" height="57" viewBox="0 0 38 57" fill="none" xmlns="http://www.w3.org/2000/svg">
<g id="Group 42306">
<path id="Vector" d="M21.1046 46.2627L19.5972 48.29L20.3769 48.8617L21.6244 47.2503L23.9116 49.0177L25.523 46.8865L24.7433 46.2627L23.4438 47.9781L21.1046 46.2627Z" fill="#2483B2"/>
<path id="Vector_2" d="M0 16.1136C0.259905 15.6977 15.9582 2.8584 15.9582 2.8584L32.852 16.1136L17.1538 30.0445L0 16.1136Z" fill="#BA7019"/>
<path id="Vector_3" d="M28.9013 0H3.89844V30.2114H28.9013V0Z" fill="#F9F0DE"/>
<path id="Vector_4" d="M22.5598 3.4834H6.70557V5.06881H22.5598V3.4834Z" fill="#4CA3E2"/>
<path id="Vector_5" d="M26.4584 7.74512H6.70557V9.39811H26.4584V7.74512Z" fill="#4CA3E2"/>
<path id="Vector_6" d="M26.4584 12.0596H6.70557V13.7126H26.4584V12.0596Z" fill="#4CA3E2"/>
<path id="Vector_7" d="M26.4584 16.3213H6.70557V17.9743H26.4584V16.3213Z" fill="#4CA3E2"/>
<path id="Vector_8" d="M32.852 36.3869H0V16.1143L16.426 26.4065L32.852 16.1143V36.3869Z" fill="#FF9100"/>
<path id="Vector_9" d="M10.6036 24.3273L1.14307 18.6094V29.9412L3.32627 22.8718L10.6036 24.3273Z" fill="#FFA131"/>
<path id="Vector_10" d="M23.6515 51.3574L20.3767 48.8623L21.6242 47.2509L23.9114 49.0183L25.5228 46.887L23.1837 45.1197L29.4214 36.8547C30.4621 37.213 31.5892 37.2352 32.6433 36.9181C33.6973 36.6009 34.625 35.9605 35.2952 35.0873C35.8682 34.3252 36.2182 33.419 36.3062 32.4696C36.3942 31.5201 36.2167 30.565 35.7934 29.7106C35.3702 28.8562 34.718 28.1361 33.9094 27.6308C33.1009 27.1255 32.1679 26.8547 31.2144 26.8487C30.2609 26.8427 29.3246 27.1017 28.5097 27.5969C27.6949 28.092 27.0336 28.8037 26.5997 29.6528C26.1658 30.5018 25.9763 31.4546 26.0523 32.4051C26.1283 33.3555 26.4669 34.2661 27.0303 35.0354L15.4385 50.4218L17.8296 52.2411L18.9212 50.8376L22.196 53.3327L23.6515 51.3574ZM33.5279 28.8496C33.714 28.9786 33.8719 29.1441 33.9918 29.3362C34.1117 29.5283 34.1911 29.7429 34.2252 29.9668C34.2592 30.1906 34.2472 30.4191 34.1899 30.6382C34.1326 30.8572 34.0311 31.0623 33.8918 31.2407C33.7668 31.4414 33.6016 31.6141 33.4067 31.748C33.2118 31.8818 32.9913 31.9739 32.7591 32.0185C32.5269 32.063 32.288 32.0591 32.0574 32.007C31.8268 31.9549 31.6095 31.8556 31.419 31.7155C31.2286 31.5754 31.0692 31.3974 30.9508 31.1927C30.8324 30.988 30.7577 30.7611 30.7311 30.5262C30.7046 30.2912 30.727 30.0533 30.7968 29.8274C30.8666 29.6015 30.9823 29.3925 31.1368 29.2135C31.2657 29.0273 31.4313 28.8695 31.6234 28.7496C31.8155 28.6297 32.03 28.5503 32.2539 28.5162C32.4778 28.4821 32.7062 28.4941 32.9253 28.5515C33.1444 28.6088 33.3494 28.7102 33.5279 28.8496Z" fill="#348EC6"/>
<path id="Vector_11" d="M32.4882 52.969L28.4337 51.9814L28.9535 49.9541L31.8125 50.6818L32.4882 48.0828L29.6293 47.355L32.1763 37.1668C33.4053 37.0928 34.5669 36.5807 35.4506 35.7234C36.3342 34.8661 36.8812 33.7205 36.9923 32.4943C37.1034 31.2682 36.7713 30.0429 36.0561 29.0407C35.341 28.0386 34.2903 27.326 33.0947 27.0323C31.899 26.7387 30.6378 26.8834 29.5397 27.4402C28.4417 27.997 27.5797 28.929 27.1101 30.0671C26.6405 31.2052 26.5945 32.4739 26.9804 33.643C27.3663 34.8121 28.1586 35.8041 29.2134 36.439L24.4312 55.3601L27.3941 56.0879L27.8099 54.3725L31.8644 55.4121L32.4882 52.969ZM32.9041 28.174C33.3451 28.2845 33.7243 28.5656 33.9582 28.9554C34.1921 29.3453 34.2617 29.8121 34.1516 30.2533C34.0973 30.4773 33.9985 30.6881 33.8609 30.873C33.7234 31.058 33.55 31.2134 33.351 31.3298C33.1521 31.4462 32.9317 31.5214 32.7031 31.5508C32.4745 31.5802 32.2423 31.5632 32.0204 31.5008C31.5793 31.3903 31.2002 31.1093 30.9663 30.7194C30.7323 30.3295 30.6628 29.8627 30.7728 29.4216C30.8271 29.1976 30.926 28.9868 31.0635 28.8018C31.2011 28.6168 31.3745 28.4615 31.5734 28.345C31.7724 28.2286 31.9927 28.1534 32.2213 28.1241C32.45 28.0947 32.6822 28.1117 32.9041 28.174Z" fill="#4CA3E2"/>
<path id="Vector_12" d="M37.1665 26.6659C36.9586 24.9506 35.1392 23.755 33.164 23.9629C31.1887 24.1709 30.0451 25.4704 29.8892 26.9778L30.461 26.8739C30.6058 26.2386 30.9525 25.6674 31.4491 25.2457C31.9458 24.824 32.5656 24.5746 33.2159 24.5347C34.9313 24.3268 36.4388 25.3144 36.6467 26.7179C36.8546 28.1214 35.5551 29.4729 33.8397 29.6808C32.9357 29.7869 32.0252 29.5454 31.2926 29.0051C31.118 29.1111 30.9885 29.2776 30.9288 29.4729C31.3422 29.7984 31.8205 30.0318 32.3315 30.1573C32.8425 30.2828 33.3745 30.2976 33.8917 30.2007C35.919 29.9927 37.3744 28.3813 37.1665 26.6659Z" fill="#FF9100"/>
</g>
</svg>
