<svg width="96" height="97" viewBox="0 0 96 97" fill="none" xmlns="http://www.w3.org/2000/svg">
<g id="Group 5177">
<g id="Vector" filter="url(#filter0_d_696_1984)">
<path d="M61.9563 77.9749L66.0487 15.2306L23.6097 14.5979L23.572 65.3104L61.9563 77.9749Z" fill="#84B4CF"/>
</g>
<g id="Vector_2" filter="url(#filter1_d_696_1984)">
<path d="M63.9824 12.8742L20.8662 12.2117L16.0146 18.1718L12.5955 79.2011L60.1967 79.933L63.9824 12.8742Z" fill="#F6F4FF"/>
</g>
<path id="Vector_3" d="M21.1198 11.3005L16.4317 16.6735L15.9685 29.803C24.5112 19.5887 37.6692 14.6741 49.5178 12.3522L21.1198 11.3005Z" fill="#E8E7F7"/>
<path id="Vector_4" d="M16.4317 16.6734L22.2958 15.7992L21.1198 11.3004L16.4317 16.6734Z" fill="white"/>
<path id="Vector_5" d="M58.2316 23.2042L42.4702 22.6104L41.8073 40.2061L57.5686 40.7999L58.2316 23.2042Z" fill="#E8E7F7"/>
<path id="Vector_6" d="M52.5359 35.5572L51.6867 35.3012L50.5465 35.3166L50.1421 36.0658L49.7922 35.2829L48.646 35.1792L47.7763 35.3484L44.6326 36.8624L44.5024 40.2142L47.8128 40.3525L52.0876 40.5438L55.398 40.6821L55.5515 37.3172L52.5359 35.5572Z" fill="#3E3D5E"/>
<path id="Vector_7" d="M48.6994 40.4043L51.4473 40.5231L52.7537 35.9712L50.2391 35.8586L50.142 36.0666L50.0422 35.8625L47.5871 35.747L48.6994 40.4043Z" fill="#E8E7F7"/>
<path id="Vector_8" d="M49.0884 37.8604L49.561 37.4266C49.6395 37.3546 49.7314 37.2987 49.8315 37.2622C49.9316 37.2257 50.0379 37.2093 50.1443 37.2138C50.2507 37.2184 50.3552 37.2439 50.4518 37.2888C50.5484 37.3338 50.6352 37.3973 50.7072 37.4758L51.141 37.9484L50.0706 38.9307L49.0884 37.8604Z" fill="#3E3D5E"/>
<path id="Vector_9" d="M50.8489 40.4926L50.1029 38.2481L49.1665 40.4159L50.8489 40.4926Z" fill="#3E3D5E"/>
<path id="Vector_10" d="M52.1881 36.2442C52.1534 36.8613 51.226 37.3081 50.101 37.2691C48.976 37.23 48.0704 36.6842 48.1051 36.0671C48.1398 35.4501 49.0672 35.0032 50.1872 35.0604C51.3071 35.1177 52.1996 35.6403 52.1881 36.2442Z" fill="#EDB29A"/>
<path id="Vector_11" d="M48.7478 33.7584L48.6752 35.2854C48.6608 35.6881 48.8061 36.0803 49.0794 36.3765C49.3528 36.6726 49.732 36.8488 50.1346 36.8667C50.5374 36.8811 50.9296 36.7359 51.2257 36.4625C51.5219 36.1892 51.6981 35.81 51.716 35.4073L51.7704 33.8753L48.7478 33.7584Z" fill="#EDB29A"/>
<path id="Vector_12" d="M48.7262 34.3987C49.7669 35.3739 50.7624 35.8077 51.5773 35.9758C51.6504 35.7939 51.6971 35.6025 51.716 35.4073L51.7704 33.8753L48.7478 33.7584L48.7262 34.3987Z" fill="#D88D87"/>
<path id="Vector_13" d="M53.8702 30.485C53.7627 32.9815 52.2315 34.964 50.1421 34.8719C48.0526 34.7798 46.6935 32.6976 46.8061 30.183C46.9186 27.6684 48.4018 26.6321 50.4912 26.7242C52.5807 26.8163 53.9828 27.9704 53.8702 30.485Z" fill="#EDB29A"/>
<path id="Vector_14" d="M53.68 28.8458C53.2456 27.4519 52.0411 26.7836 50.4909 26.7242C48.9408 26.6647 47.9771 27.1014 47.3544 28.1423C49.92 30.815 52.3211 29.858 53.68 28.8458Z" fill="#D88D87"/>
<path id="Vector_15" d="M46.493 29.8994C46.493 29.8994 46.6385 28.0402 47.668 27.3672L49.0289 28.1769L47.4773 28.685L47.0422 30.2481L46.493 29.8994Z" fill="#3E3D5E"/>
<path id="Vector_16" d="M53.9826 30.2217C53.9826 30.2217 54.014 28.3504 53.0318 27.5873L51.6034 28.2864L53.1108 28.9215L53.4118 30.5133L53.9826 30.2217Z" fill="#3E3D5E"/>
<path id="Vector_17" d="M49.4443 30.6227C49.4418 30.6825 49.4276 30.7412 49.4024 30.7954C49.3773 30.8497 49.3417 30.8984 49.2976 30.9389C49.2536 30.9794 49.2021 31.0108 49.1459 31.0314C49.0898 31.0519 49.0301 31.0612 48.9704 31.0588C48.9106 31.0563 48.852 31.042 48.7977 31.0169C48.7435 30.9917 48.6947 30.9561 48.6542 30.9121C48.6138 30.8681 48.5823 30.8165 48.5618 30.7604C48.5412 30.7042 48.5319 30.6446 48.5344 30.5848C48.5364 30.5262 48.5503 30.4685 48.5752 30.4153C48.6001 30.3622 48.6355 30.3146 48.6794 30.2756C48.7232 30.2365 48.7745 30.2067 48.8302 30.1881C48.8858 30.1694 48.9447 30.1623 49.0032 30.167C49.1218 30.1701 49.2344 30.2196 49.3169 30.3048C49.3994 30.39 49.4451 30.5042 49.4443 30.6227Z" fill="#34344F"/>
<path id="Vector_18" d="M52.1147 30.7401C52.0927 30.8445 52.0345 30.9378 51.9504 31.0034C51.8663 31.0691 51.7617 31.1029 51.655 31.099C51.5484 31.0951 51.4466 31.0536 51.3675 30.982C51.2885 30.9103 51.2373 30.813 51.223 30.7073C51.2141 30.6419 51.2197 30.5753 51.2393 30.5123C51.2588 30.4493 51.2919 30.3913 51.3363 30.3424C51.3806 30.2935 51.4351 30.2549 51.4959 30.2292C51.5567 30.2036 51.6224 30.1916 51.6884 30.194C51.7543 30.1965 51.8189 30.2133 51.8777 30.2433C51.9365 30.2733 51.988 30.3158 52.0286 30.3679C52.0692 30.4199 52.098 30.4802 52.1128 30.5445C52.1277 30.6088 52.1284 30.6755 52.1147 30.7401Z" fill="#34344F"/>
<path id="Vector_19" d="M50.6153 30.1459L50.2289 31.2526L49.526 31.1744C49.526 31.1744 49.4943 31.851 50.0941 32.018L49.8208 31.4523L50.4307 31.5829L50.6153 30.1459Z" fill="#D88D87"/>
<path id="Vector_20" d="M53.0678 31.0443C52.9351 31.732 53.1882 32.3704 53.6477 32.4787C54.1071 32.587 54.5729 32.1096 54.7238 31.427C54.8747 30.7444 54.6034 30.1009 54.144 29.9926C53.6845 29.8843 53.2005 30.3566 53.0678 31.0443Z" fill="#EDB29A"/>
<path id="Vector_21" d="M53.5557 31.1217L53.3355 31.1387L53.3456 31.1024C53.4489 30.6611 53.7732 30.3401 54.0641 30.4211C54.3549 30.5021 54.5364 30.9051 54.4463 31.3696C54.4214 31.5148 54.363 31.6521 54.2756 31.7706C54.1882 31.8891 54.0743 31.9855 53.9429 32.052C54.0098 31.6006 53.8465 31.2026 53.5557 31.1217Z" fill="#D88D87"/>
<path id="Vector_22" d="M47.4528 30.8125C47.5353 31.5013 47.2259 32.1202 46.7572 32.1856C46.2886 32.251 45.8627 31.7407 45.7621 31.0468C45.6615 30.353 45.9891 29.7391 46.4577 29.6738C46.9264 29.6084 47.3755 30.1055 47.4528 30.8125Z" fill="#EDB29A"/>
<path id="Vector_23" d="M46.953 30.85C47.0235 30.8391 47.0957 30.8457 47.1631 30.8694C47.0977 30.4007 46.8181 30.0683 46.5101 30.1196C46.202 30.1709 45.9948 30.5637 46.042 31.0273C46.0892 31.4908 46.2769 31.6606 46.49 31.7395C46.4609 31.281 46.6631 30.9064 46.953 30.85Z" fill="#D88D87"/>
<path id="Vector_24" d="M51.31 32.4353C50.5399 32.5535 49.7529 32.4887 49.0125 32.2462C49.0653 32.5176 49.2069 32.7638 49.4151 32.9459C49.6233 33.128 49.8861 33.2356 50.1622 33.2517C50.4204 33.2806 50.6802 33.2133 50.892 33.0627C51.1037 32.9121 51.2525 32.6887 51.31 32.4353Z" fill="#34344F"/>
<path id="Vector_25" d="M49.1448 32.6156L49.2216 32.4803L49.1581 32.2864C49.8209 32.484 50.517 32.5445 51.204 32.4643L51.0423 32.6934L51.116 32.851C51.0047 32.9939 50.8585 33.1058 50.6915 33.1759C50.5245 33.246 50.3423 33.272 50.1624 33.2514C49.9525 33.2415 49.7487 33.1778 49.5705 33.0665C49.3923 32.9551 49.2457 32.7999 49.1448 32.6156Z" fill="#FBF2EB"/>
<path id="Vector_26" d="M51.0817 32.7627C50.8016 32.8428 50.5087 32.8677 50.2192 32.8359C49.5839 32.7962 49.3003 32.6193 49.1882 32.5293L49.2034 32.4748C49.9293 32.8923 51.0241 32.6879 51.0241 32.6879L51.0817 32.7627Z" fill="#DACEEA"/>
<path id="Vector_27" d="M48.4018 29.7258C48.8217 29.5736 49.2719 29.5244 49.7148 29.5822L49.6464 29.054C49.1854 29.0875 48.7363 29.2158 48.3272 29.4309L48.4018 29.7258Z" fill="#3E3D5E"/>
<path id="Vector_28" d="M52.2931 29.8888C51.8921 29.7016 51.4502 29.619 51.0086 29.6487L51.119 29.1115C51.573 29.1849 52.0067 29.3523 52.3922 29.603L52.2931 29.8888Z" fill="#3E3D5E"/>
<path id="Vector_29" d="M53.5462 28.2009C53.5462 28.2009 51.3885 29.1278 49.1044 28.6093C46.8203 28.0909 46.5674 27.1001 46.6383 26.8456C46.7091 26.5912 47.1232 26.5106 47.3887 26.6824C47.3887 26.6824 46.8703 25.5197 47.5149 25.0333C48.1595 24.5469 49.1065 25.0848 49.3373 25.8736C49.3373 25.8736 49.1438 25.2322 49.5266 25.1234C49.9094 25.0145 50.3051 25.2814 50.3401 25.8591C50.3401 25.8591 53.6547 25.8418 53.5462 28.2009Z" fill="#4C4C72"/>
<path id="Vector_30" d="M53.5312 27.9036C50.9488 28.1051 50.4264 26.7454 50.3583 25.8648C50.7529 25.8778 51.1455 25.9281 51.5307 26.0149C51.6777 26.6825 52.1418 27.4776 53.4346 27.4067C53.4914 27.5665 53.524 27.734 53.5312 27.9036Z" fill="#60608C"/>
<path id="Vector_31" d="M52.7538 35.9707L52.0725 35.2523L51.6968 35.2652L50.1153 37.077L48.6975 35.1352L48.3188 35.0885L47.5872 35.7465L48.6805 38.3618L50.1171 37.3517L51.4465 38.4856L52.7538 35.9707Z" fill="#F6F4FF"/>
<path id="Vector_32" d="M39.1258 22.7937L20.8569 22.1055L20.7527 24.8712L39.0216 25.5595L39.1258 22.7937Z" fill="#AEAED6"/>
<path id="Vector_33" d="M38.989 27.8748L20.7202 27.1865L20.6881 28.0387L38.9569 28.727L38.989 27.8748Z" fill="#C4C4E8"/>
<path id="Vector_34" d="M38.8528 30.6639L20.584 29.9756L20.5519 30.8278L38.8207 31.516L38.8528 30.6639Z" fill="#C4C4E8"/>
<path id="Vector_35" d="M38.7307 33.4539L20.4619 32.7656L20.4298 33.6178L38.6986 34.3061L38.7307 33.4539Z" fill="#C4C4E8"/>
<path id="Vector_36" d="M38.6077 36.2684L20.3389 35.5801L20.3068 36.4322L38.5756 37.1205L38.6077 36.2684Z" fill="#C4C4E8"/>
<path id="Vector_37" d="M38.4666 39.076L20.1978 38.3877L20.1656 39.2399L38.4345 39.9281L38.4666 39.076Z" fill="#C4C4E8"/>
<path id="Vector_38" d="M57.7494 45.3908L42.5921 44.7548L42.4864 47.5259L57.6488 48.1438L57.7494 45.3908Z" fill="#AEAED6"/>
<path id="Vector_39" d="M57.6337 50.4504L42.4713 49.8326L42.4486 50.6879L57.611 51.3058L57.6337 50.4504Z" fill="#C4C4E8"/>
<path id="Vector_40" d="M57.4994 53.2531L42.337 52.6353L42.3143 53.4907L57.4767 54.1085L57.4994 53.2531Z" fill="#C4C4E8"/>
<path id="Vector_41" d="M57.3837 56.0607L42.2263 55.4247L42.1854 56.2751L57.3428 56.9111L57.3837 56.0607Z" fill="#C4C4E8"/>
<path id="Vector_42" d="M57.2548 58.8449L42.0924 58.2271L42.0515 59.0774L57.2139 59.6952L57.2548 58.8449Z" fill="#C4C4E8"/>
<path id="Vector_43" d="M57.121 61.6477L41.9586 61.0298L41.9359 61.8852L57.0801 62.498L57.121 61.6477Z" fill="#C4C4E8"/>
<path id="Vector_44" d="M25.0885 42.9212L20.7881 42.8193L20.686 47.1273L24.9864 47.2292L25.0885 42.9212Z" fill="white"/>
<path id="Vector_45" d="M25.1109 43.8829L20.7749 44.6146L20.8275 42.8079L25.1276 42.9083L25.1109 43.8829Z" fill="#E4EAF4"/>
<path id="Vector_46" d="M20.5957 47.5808C20.4953 47.5517 20.4074 47.4901 20.3458 47.4056C20.2843 47.3211 20.2525 47.2185 20.2556 47.1141L20.343 42.7907C20.3458 42.7285 20.361 42.6674 20.3876 42.6111C20.4142 42.5548 20.4517 42.5043 20.4979 42.4625C20.5441 42.4208 20.5982 42.3886 20.6569 42.3678C20.7156 42.3471 20.7779 42.3381 20.8401 42.3416L25.1402 42.442C25.2031 42.4405 25.2654 42.4533 25.3226 42.4794C25.3798 42.5055 25.4303 42.5442 25.4704 42.5927C25.5149 42.6342 25.5492 42.6854 25.5707 42.7424C25.5922 42.7993 25.6003 42.8604 25.5944 42.921L25.4939 47.2211C25.494 47.2842 25.4815 47.3466 25.4571 47.4047C25.4326 47.4629 25.3968 47.5155 25.3517 47.5595C25.3066 47.6036 25.2531 47.6381 25.1944 47.6611C25.1357 47.6841 25.0729 47.6951 25.0099 47.6935L20.7098 47.593L20.5957 47.5808ZM21.2819 43.2871L21.2062 46.6541L24.5681 46.748L24.6438 43.381L21.2819 43.2871Z" fill="#9B9BBA"/>
<path id="Vector_47" d="M26.5056 44.6431C26.3988 44.609 26.3076 44.538 26.2484 44.4428C26.1893 44.3475 26.1659 44.2344 26.1827 44.1235C26.1994 44.0126 26.255 43.9113 26.3397 43.8378C26.4243 43.7643 26.5323 43.7233 26.6445 43.7222L37.6008 43.972C37.727 43.9759 37.8464 44.0298 37.9328 44.1218C38.0192 44.2138 38.0655 44.3364 38.0615 44.4626C38.0576 44.5887 38.0037 44.7081 37.9117 44.7945C37.8197 44.8809 37.6971 44.9272 37.571 44.9233L26.6197 44.6553L26.5056 44.6431Z" fill="#C4C4E8"/>
<path id="Vector_48" d="M26.4812 46.0671C26.3787 46.0429 26.2873 45.985 26.2214 45.9028C26.1556 45.8206 26.1191 45.7187 26.1179 45.6134C26.124 45.4853 26.1799 45.3647 26.2738 45.2774C26.3676 45.19 26.492 45.1429 26.6201 45.1461L36.1899 45.3819C36.2517 45.3817 36.313 45.394 36.3699 45.4183C36.4267 45.4426 36.478 45.4783 36.5206 45.5232C36.5632 45.5681 36.5961 45.6212 36.6173 45.6793C36.6385 45.7373 36.6477 45.7992 36.6441 45.8609C36.6395 45.9842 36.5868 46.1008 36.4973 46.1857C36.4077 46.2706 36.2885 46.3171 36.1651 46.3151L26.5903 46.0974L26.4812 46.0671Z" fill="#C4C4E8"/>
<path id="Vector_49" d="M23.2072 46.291L22.2424 45.0432C22.1814 44.9638 22.1544 44.8635 22.1673 44.7643C22.1803 44.6651 22.2321 44.575 22.3114 44.514C22.3907 44.453 22.4911 44.426 22.5903 44.4389C22.6895 44.4518 22.7796 44.5037 22.8406 44.583L23.2695 45.1528L27.2044 41.0781C27.2798 41.0106 27.3772 40.973 27.4784 40.9723C27.5796 40.9717 27.6775 41.008 27.7538 41.0744C27.8208 41.1461 27.8588 41.2402 27.8604 41.3383C27.8621 41.4365 27.8272 41.5317 27.7626 41.6056L23.2072 46.291Z" fill="#1a41b6"/>
<path id="Vector_50" d="M24.775 51.181L20.4746 51.0791L20.3725 55.387L24.6729 55.489L24.775 51.181Z" fill="white"/>
<path id="Vector_51" d="M24.7681 52.1505L20.4503 52.8872L20.4847 51.0754L24.803 51.181L24.7681 52.1505Z" fill="#E4EAF4"/>
<path id="Vector_52" d="M20.258 55.8296C20.1597 55.8022 20.0729 55.7437 20.0106 55.6628C19.9484 55.5819 19.9141 55.4831 19.9128 55.381L20.0184 51.0627C20.0229 50.9394 20.0756 50.8228 20.1652 50.7379C20.2547 50.653 20.374 50.6065 20.4973 50.6085L24.8157 50.7141C24.9405 50.7121 25.0611 50.7597 25.1509 50.8465C25.2266 50.9463 25.2683 51.0678 25.2698 51.193L25.1694 55.4931C25.1647 55.6189 25.1119 55.7381 25.0218 55.8261C24.9317 55.914 24.8112 55.9639 24.6853 55.9655L20.3852 55.865L20.258 55.8296ZM20.9573 51.5591L20.8816 54.9261L24.2304 54.9967L24.3243 51.6348L20.9573 51.5591Z" fill="#9B9BBA"/>
<path id="Vector_53" d="M26.1804 52.9153C26.08 52.8862 25.9921 52.8245 25.9305 52.74C25.869 52.6555 25.8372 52.553 25.8403 52.4485C25.84 52.3867 25.8524 52.3254 25.8767 52.2685C25.901 52.2117 25.9367 52.1604 25.9815 52.1178C26.0264 52.0752 26.0795 52.0423 26.1376 52.0211C26.1957 51.9999 26.2575 51.9907 26.3193 51.9943L37.2756 52.2441C37.3989 52.2487 37.5155 52.3014 37.6005 52.3909C37.6854 52.4804 37.7318 52.5997 37.7298 52.7231C37.7299 52.7861 37.7174 52.8486 37.693 52.9067C37.6685 52.9648 37.6327 53.0175 37.5876 53.0615C37.5424 53.1055 37.4889 53.1401 37.4302 53.1631C37.3715 53.1861 37.3088 53.1971 37.2458 53.1954L26.2945 52.9275L26.1804 52.9153Z" fill="#C4C4E8"/>
<path id="Vector_54" d="M26.1381 54.3331C26.036 54.3071 25.9461 54.2462 25.884 54.161C25.8219 54.0758 25.7915 53.9716 25.798 53.8663C25.8026 53.743 25.8553 53.6264 25.9449 53.5415C26.0344 53.4566 26.1536 53.4102 26.277 53.4122L35.8518 53.6298C35.9146 53.6306 35.9767 53.6437 36.0344 53.6685C36.0921 53.6932 36.1444 53.7291 36.1883 53.774C36.2321 53.819 36.2667 53.8721 36.29 53.9304C36.3133 53.9887 36.325 54.051 36.3242 54.1138C36.3234 54.1766 36.3103 54.2387 36.2856 54.2964C36.2608 54.3541 36.2249 54.4064 36.18 54.4503C36.1351 54.4941 36.0819 54.5287 36.0236 54.552C35.9653 54.5754 35.903 54.587 35.8402 54.5862L26.2704 54.3504L26.1381 54.3331Z" fill="#C4C4E8"/>
<path id="Vector_55" d="M22.8822 54.5625L21.8992 53.3097C21.8467 53.2274 21.8248 53.1293 21.8374 53.0325C21.85 52.9358 21.8963 52.8465 21.9682 52.7805C22.0075 52.7503 22.0523 52.7281 22.1002 52.7152C22.148 52.7023 22.1979 52.699 22.2471 52.7054C22.2962 52.7118 22.3436 52.7278 22.3866 52.7526C22.4295 52.7773 22.4672 52.8102 22.4974 52.8495L22.9495 53.4062L26.8794 49.3497C26.9489 49.2785 27.0437 49.2376 27.1432 49.236C27.2427 49.2343 27.3388 49.272 27.4106 49.3409C27.4482 49.3739 27.4786 49.4144 27.4996 49.4598C27.5206 49.5052 27.5319 49.5545 27.5328 49.6046C27.5336 49.6546 27.5239 49.7043 27.5044 49.7504C27.4849 49.7964 27.4559 49.8379 27.4194 49.8721L22.8822 54.5625Z" fill="#1a41b6"/>
<path id="Vector_56" d="M24.443 59.4545L20.1426 59.3525L20.0405 63.6605L24.3409 63.7624L24.443 59.4545Z" fill="white"/>
<path id="Vector_57" d="M24.448 60.4038L20.1302 61.1405L20.1595 59.3469L24.4778 59.4525L24.448 60.4038Z" fill="#E4EAF4"/>
<path id="Vector_58" d="M19.9327 64.1009C19.8339 64.0691 19.7478 64.0068 19.6867 63.9229C19.6256 63.839 19.5927 63.7379 19.5926 63.6342L19.6931 59.334C19.693 59.271 19.7055 59.2085 19.73 59.1504C19.7544 59.0923 19.7902 59.0397 19.8353 58.9956C19.8805 58.9516 19.934 58.917 19.9927 58.894C20.0514 58.871 20.1141 58.86 20.1771 58.8617L24.4773 58.9621C24.6009 58.9748 24.7169 59.0277 24.8074 59.1128C24.8956 59.2017 24.9465 59.321 24.9496 59.4462L24.8441 63.7645C24.8395 63.8878 24.7868 64.0044 24.6973 64.0893C24.6077 64.1742 24.4885 64.2206 24.3651 64.2187L20.0468 64.1131L19.9327 64.1009ZM20.632 59.8304L20.5382 63.1924L23.9052 63.2681L23.9808 59.9011L20.632 59.8304Z" fill="#9B9BBA"/>
<path id="Vector_59" d="M25.8605 61.1699C25.758 61.1457 25.6665 61.0879 25.6007 61.0057C25.5348 60.9235 25.4984 60.8216 25.4972 60.7162C25.5018 60.5904 25.5547 60.4712 25.6448 60.3833C25.7349 60.2954 25.8553 60.2455 25.9812 60.2439L36.9507 60.5169C37.0125 60.5166 37.0738 60.529 37.1306 60.5533C37.1875 60.5776 37.2388 60.6133 37.2814 60.6581C37.3239 60.703 37.3568 60.7561 37.3781 60.8142C37.3993 60.8723 37.4084 60.9341 37.4049 60.9959C37.4003 61.1192 37.3476 61.2358 37.2581 61.3207C37.1685 61.4056 37.0493 61.452 36.9259 61.4501L25.9695 61.2003L25.8605 61.1699Z" fill="#C4C4E8"/>
<path id="Vector_60" d="M25.8133 62.6047C25.7145 62.5729 25.6284 62.5105 25.5673 62.4267C25.5062 62.3428 25.4732 62.2417 25.4732 62.1379C25.4779 62.0121 25.5307 61.8929 25.6208 61.805C25.7109 61.7171 25.8313 61.6672 25.9572 61.6656L35.527 61.9014C35.6503 61.906 35.7669 61.9587 35.8518 62.0482C35.9367 62.1378 35.9831 62.257 35.9812 62.3804C35.9814 62.4422 35.9691 62.5035 35.9448 62.5604C35.9205 62.6172 35.8848 62.6685 35.8399 62.7111C35.795 62.7536 35.7419 62.7865 35.6838 62.8078C35.6258 62.829 35.5639 62.8381 35.5022 62.8346L25.9274 62.6169L25.8133 62.6047Z" fill="#C4C4E8"/>
<path id="Vector_61" d="M22.5572 62.8347L21.5793 61.5637C21.5491 61.5244 21.5269 61.4796 21.514 61.4317C21.5011 61.3839 21.4978 61.334 21.5042 61.2848C21.5106 61.2357 21.5266 61.1883 21.5513 61.1454C21.5761 61.1024 21.609 61.0648 21.6483 61.0345C21.6876 61.0043 21.7324 60.9821 21.7802 60.9693C21.8281 60.9564 21.878 60.953 21.9271 60.9594C21.9763 60.9659 22.0237 60.9819 22.0666 61.0066C22.1096 61.0313 22.1472 61.0643 22.1774 61.1035L22.6245 61.6784L26.5544 57.6219C26.5874 57.5843 26.6279 57.5539 26.6733 57.5329C26.7187 57.5119 26.768 57.5006 26.8181 57.4998C26.8681 57.4989 26.9178 57.5086 26.9638 57.5281C27.0099 57.5476 27.0514 57.5766 27.0856 57.6131C27.1568 57.6826 27.1977 57.7774 27.1993 57.8769C27.201 57.9764 27.1633 58.0725 27.0944 58.1443L22.5572 62.8347Z" fill="#1a41b6"/>
<path id="Vector_62" d="M62.8565 12.3451C62.7228 11.9594 62.4485 11.6382 62.0885 11.4458C61.7163 11.2653 61.2883 11.2375 60.8959 11.3683C60.6984 11.4286 60.5159 11.5298 60.3601 11.6652C60.2042 11.8007 60.0787 11.9674 59.9915 12.1545L59.6973 12.7189L60.1225 12.7393L60.3166 12.3234C60.3877 12.1842 60.4855 12.0605 60.6044 11.9592C60.7234 11.8579 60.8611 11.781 61.0098 11.733C61.1563 11.6795 61.3123 11.6568 61.4681 11.6665C61.6238 11.6761 61.7758 11.7179 61.9146 11.7891C62.1892 11.9334 62.4011 12.1736 62.5101 12.464C62.559 12.6113 62.5776 12.7669 62.5649 12.9215C62.5521 13.0761 62.5082 13.2266 62.4358 13.3638L60.7281 16.8248L59.718 18.8349C59.6529 18.9665 59.5499 19.0757 59.4223 19.1483C59.2947 19.2209 59.1483 19.2537 59.0019 19.2424C58.8555 19.2311 58.7159 19.1763 58.6009 19.085C58.4859 18.9937 58.4009 18.8701 58.3567 18.7301C58.3242 18.6396 58.3108 18.5434 58.3173 18.4474C58.3238 18.3515 58.3501 18.258 58.3944 18.1727L60.2073 14.5451L59.864 14.3712L58.0693 18.0038C57.9343 18.2717 57.9113 18.5823 58.0052 18.8672C58.0517 19.007 58.1256 19.1361 58.2224 19.2471C58.3193 19.3581 58.4372 19.4488 58.5693 19.5139L58.7693 19.5696C59.0191 19.6356 59.2839 19.6142 59.5199 19.5089C59.7558 19.4035 59.9486 19.2207 60.0663 18.9906L61.1502 16.7856L62.7841 13.5195C62.8742 13.3386 62.9271 13.1414 62.9395 12.9396C62.9519 12.7379 62.9237 12.5357 62.8565 12.3451Z" fill="#FF4060"/>
<g id="Vector_63" style="mix-blend-mode:multiply" opacity="0.14">
<path d="M30.9771 57.4233C33.01 59.9095 35.6526 61.8264 38.6471 62.9871C41.6416 64.1478 44.8857 64.5126 48.0632 64.0461C51.2407 63.5795 54.243 62.2975 56.7775 60.3249C59.3119 58.3524 61.2918 55.7567 62.5243 52.7911L62.9762 39.913C62.1247 37.3292 60.7153 34.9645 58.8478 32.9863C56.9804 31.0081 54.7006 29.465 52.1701 28.4664C49.6396 27.4678 46.9204 27.038 44.2053 27.2077C41.4902 27.3774 38.8457 28.1423 36.4592 29.4482C34.0728 30.7541 32.0028 32.569 30.3961 34.7643C28.7895 36.9595 27.6854 39.4814 27.1623 42.151C26.6391 44.8206 26.7097 47.5726 27.3689 50.2119C28.0282 52.8513 29.26 55.3132 30.9771 57.4233Z" fill="#7991A5"/>
</g>
<g id="Group 5178" filter="url(#filter2_d_696_1984)">
<path id="Vector_64" d="M59.0166 58.0032L77.0637 77.0303C77.5092 77.4626 77.8627 77.9805 78.1029 78.553C78.3431 79.1254 78.465 79.7405 78.4613 80.3613C78.4576 80.9821 78.3284 81.5957 78.0815 82.1653C77.8345 82.7349 77.475 83.2486 77.0243 83.6756C76.5737 84.1026 76.0414 84.434 75.4594 84.65C74.8774 84.8659 74.2577 84.9619 73.6376 84.9322C73.0175 84.9025 72.4099 84.7477 71.8511 84.4771C71.2924 84.2065 70.7943 83.8256 70.3865 83.3575C70.2302 83.1882 70.0836 83.01 69.9475 82.824L54.9933 61.2699C54.7969 60.9901 54.6579 60.674 54.5845 60.3402C54.511 60.0063 54.5046 59.6611 54.5654 59.3247C54.6263 58.9883 54.7533 58.6673 54.9391 58.3803C55.1249 58.0933 55.3658 57.846 55.6478 57.6528C56.1588 57.2997 56.7792 57.141 57.397 57.2053C58.0148 57.2695 58.5892 57.5525 59.0166 58.0032Z" fill="#1303CA"/>
<path id="Vector_65" d="M61.244 61.6783L75.8674 77.2455C76.4536 77.9368 76.7529 78.8262 76.7039 79.7313C76.6549 80.6363 76.2613 81.4882 75.6039 82.1121C74.9465 82.736 74.0753 83.0847 73.1689 83.0864C72.2626 83.0881 71.39 82.7428 70.7302 82.1214L70.3982 81.696L58.1562 64.1872C58.0045 63.9726 57.897 63.73 57.84 63.4735C57.783 63.217 57.7775 62.9517 57.824 62.6931C57.8705 62.4345 57.968 62.1877 58.1108 61.9671C58.2536 61.7465 58.4388 61.5565 58.6557 61.4082C59.0497 61.1407 59.5256 61.0211 59.9992 61.0706C60.4728 61.12 60.9137 61.3353 61.244 61.6783Z" fill="#0C14E1"/>
<path id="Vector_66" d="M59.1992 61.6377L73.7887 78.3117" stroke="#252CDC" stroke-width="9.03522" stroke-miterlimit="10" stroke-linecap="round"/>
</g>
<path id="Vector_67" d="M52.0545 59.7276L55.9247 64.4674C56.1468 64.7351 56.4656 64.9044 56.8118 64.9384C57.158 64.9725 57.5037 64.8686 57.7737 64.6492L61.7688 61.4138C62.0365 61.1917 62.2058 60.8729 62.2399 60.5267C62.2739 60.1805 62.17 59.8348 61.9507 59.5648L58.0804 54.825C57.861 54.5561 57.5446 54.3843 57.1995 54.3468C56.8544 54.3094 56.5084 54.4093 56.2365 54.625L52.2363 57.8786C52.1016 57.9871 51.9899 58.1214 51.9077 58.2736C51.8254 58.4258 51.7744 58.5928 51.7574 58.765C51.7405 58.9371 51.7581 59.1109 51.8091 59.2762C51.8601 59.4415 51.9435 59.595 52.0545 59.7276Z" fill="#C7BFBF"/>
<path id="Vector_68" d="M60.3017 57.5384L58.2712 55.0539C58.0491 54.7861 57.7303 54.6169 57.3841 54.5828C57.0379 54.5488 56.6922 54.6527 56.4222 54.872L52.4453 58.1125C52.31 58.2197 52.1973 58.3527 52.1139 58.5038C52.0305 58.6548 51.9779 58.821 51.9593 58.9926C51.9407 59.1642 51.9564 59.3378 52.0055 59.5033C52.0546 59.6687 52.1361 59.8228 52.2453 59.9565L54.2757 62.441C56.7211 61.4321 58.8164 59.7274 60.3017 57.5384Z" fill="#A19A9A"/>
<path id="Vector_69" d="M59.8053 56.9307L57.7748 54.4461C57.5554 54.1771 57.2389 54.0054 56.8938 53.9679C56.5487 53.9305 56.2028 54.0304 55.9308 54.2461L51.9307 57.4997C51.796 57.6082 51.6842 57.7425 51.602 57.8947C51.5198 58.0469 51.4687 58.2139 51.4518 58.3861C51.4348 58.5582 51.4524 58.732 51.5034 58.8973C51.5544 59.0626 51.6378 59.2161 51.7488 59.3487L53.7611 61.8282C54.9863 61.3274 56.1316 60.65 57.1606 59.8175C58.1744 58.9853 59.0649 58.0133 59.8053 56.9307Z" fill="#706E6E"/>
<path id="Vector_70" d="M47.1061 61.1113C47.0887 61.2631 47.1033 61.4169 47.149 61.5628C47.1946 61.7086 47.2704 61.8433 47.3712 61.9581C47.4721 62.0729 47.5959 62.1653 47.7347 62.2293C47.8734 62.2933 48.0241 62.3276 48.1769 62.3299C51.299 62.3665 54.3354 61.3082 56.7584 59.3388C59.1814 57.3695 60.8379 54.6135 61.4402 51.5498C61.4678 51.3998 61.4643 51.2457 61.4299 51.0971C61.3955 50.9485 61.3309 50.8086 61.2402 50.686C61.1494 50.5634 61.0345 50.4608 60.9024 50.3845C60.7703 50.3082 60.624 50.2598 60.4725 50.2424L48.3483 48.982L47.1061 61.1113Z" fill="#20236B"/>
<path id="Vector_71" d="M54.9149 55.4321C54.9684 55.3878 55.03 55.3544 55.0964 55.334C55.1627 55.3135 55.2324 55.3064 55.3016 55.3129C55.3707 55.3194 55.4379 55.3395 55.4992 55.3719C55.5606 55.4044 55.6149 55.4487 55.6592 55.5022L56.8561 56.9713C56.4912 57.3424 56.106 57.6928 55.7021 58.0209C55.2768 58.353 54.8565 58.6668 54.423 58.9574L53.2261 57.4883C53.1818 57.4348 53.1485 57.3732 53.128 57.3068C53.1076 57.2405 53.1004 57.1707 53.1069 57.1016C53.1134 57.0325 53.1335 56.9653 53.166 56.904C53.1985 56.8426 53.2427 56.7883 53.2963 56.744L54.9149 55.4321Z" fill="#706E6E"/>
<path id="Vector_72" d="M53.2956 59.646C61.553 54.9852 64.4685 44.5129 59.8077 36.2555C55.1468 27.9981 44.6745 25.0825 36.4171 29.7434C28.1598 34.4042 25.2442 44.8765 29.905 53.1339C34.5659 61.3913 45.0382 64.3069 53.2956 59.646Z" fill="#CACBCC"/>
<path id="Vector_73" d="M52.8228 58.8084C60.6174 54.4087 63.3695 44.5233 58.9699 36.7287C54.5703 28.9341 44.6849 26.1819 36.8902 30.5816C29.0956 34.9812 26.3435 44.8666 30.7431 52.6612C35.1428 60.4559 45.0282 63.208 52.8228 58.8084Z" fill="#9CAAB5"/>
<path id="Vector_74" d="M52.4146 58.085C59.81 53.9107 62.4211 44.5317 58.2469 37.1364C54.0726 29.741 44.6935 27.1298 37.2982 31.3041C29.9028 35.4784 27.2916 44.8574 31.4659 52.2528C35.6402 59.6481 45.0192 62.2593 52.4146 58.085Z" fill="#EDE8E8"/>
<path id="Vector_75" d="M52.2383 57.7736C59.4612 53.6966 62.0116 44.5363 57.9346 37.3133C53.8576 30.0904 44.6972 27.5401 37.4743 31.617C30.2513 35.694 27.701 44.8544 31.778 52.0773C35.855 59.3003 45.0154 61.8506 52.2383 57.7736Z" fill="#706E6E"/>
<path id="Vector_76" d="M52.0716 57.478C59.1312 53.4932 61.6239 44.5399 57.6391 37.4803C53.6543 30.4207 44.7011 27.9281 37.6414 31.9129C30.5818 35.8976 28.0892 44.8509 32.074 51.9105C36.0587 58.9701 45.012 61.4627 52.0716 57.478Z" fill="#E8E7F7"/>
<path id="Vector_77" d="M51.5705 56.5901C58.1401 52.8819 60.4597 44.55 56.7515 37.9804C53.0433 31.4108 44.7115 29.0912 38.1419 32.7994C31.5723 36.5076 29.2527 44.8394 32.9609 51.409C36.6691 57.9786 45.0009 60.2983 51.5705 56.5901Z" fill="#F6F4FF"/>
<g id="Vector_78" style="mix-blend-mode:color-dodge" opacity="0.2">
<path d="M36.2749 52.1807C36.1159 53.7153 36.1999 55.2654 36.5237 56.7739C38.9412 58.4519 41.8079 59.3634 44.7506 59.3898C47.6933 59.4163 50.5759 58.5565 53.0232 56.9222C55.4706 55.2879 57.3694 52.9549 58.4726 50.2267C59.5759 47.4985 59.8325 44.5014 59.209 41.6254C57.1837 40.2127 54.8305 39.3418 52.3734 39.0956C50.457 38.8964 48.52 39.0769 46.6734 39.6269C44.8268 40.1769 43.1067 41.0855 41.6115 42.3008C40.1164 43.5161 38.8754 45.0142 37.9597 46.7095C37.044 48.4048 36.4715 50.2639 36.2749 52.1807Z" fill="#E0E5E8"/>
</g>
<path id="Vector_79" d="M59.4258 59.4883L60.552 60.8594" stroke="white" stroke-width="5.64701" stroke-linecap="round" stroke-linejoin="round"/>
<g id="Vector_80" style="mix-blend-mode:color-dodge" opacity="0.62">
<path d="M54.1247 37.4495C53.5485 38.4641 51.2975 38.2487 49.1017 36.9911C46.9059 35.7335 45.6002 33.8816 46.1764 32.867C46.7526 31.8523 49.0268 32.0546 51.2227 33.3123C53.4185 34.5699 54.706 36.4167 54.1247 37.4495Z" fill="#E0E5E8"/>
</g>
<path id="Vector_81" d="M59.1261 26.2153L38.2744 25.4297L37.3966 48.7286L58.2484 49.5141L59.1261 26.2153Z" fill="#E8E7F7"/>
<path id="Vector_82" d="M51.6038 42.5637L50.4638 42.2267L48.9479 42.2551L48.4181 43.2435L47.9602 42.2152L46.4535 42.0699L45.294 42.2954L41.135 44.2906L40.9527 48.7442L45.3467 48.9295L50.998 49.1712L55.392 49.3565L55.5744 44.9029L51.6038 42.5637Z" fill="#3E3D5E"/>
<path id="Vector_83" d="M46.5081 48.9789L50.1477 49.1305L51.8822 43.1114L48.5718 42.9732L48.4182 43.2437L48.279 42.97L45.0463 42.8338L46.5081 48.9789Z" fill="#E8E7F7"/>
<path id="Vector_84" d="M47.0273 45.5928L47.8336 44.8529C47.9921 44.7074 48.2019 44.6309 48.4169 44.6401C48.6319 44.6493 48.8343 44.7436 48.9798 44.9021L49.7197 45.7083L48.3157 46.9967L47.0273 45.5928Z" fill="#3E3D5E"/>
<path id="Vector_85" d="M49.3523 49.1048L48.3603 46.126L47.1255 49.0136L49.3523 49.1048Z" fill="#3E3D5E"/>
<path id="Vector_86" d="M48.3144 44.8736C49.803 44.9375 51.0381 44.331 51.0729 43.519C51.1078 42.707 49.9292 41.997 48.4406 41.9331C46.9519 41.8692 45.7169 42.4756 45.682 43.2876C45.6472 44.0996 46.8257 44.8097 48.3144 44.8736Z" fill="#EDB29A"/>
<path id="Vector_87" d="M46.5862 40.1878L46.4911 42.2177C46.4799 42.4812 46.5209 42.7444 46.6119 42.992C46.7028 43.2396 46.8418 43.4668 47.0209 43.6604C47.1999 43.8541 47.4156 44.0104 47.6553 44.1204C47.8951 44.2304 48.1542 44.2919 48.4178 44.3013C48.9487 44.3189 49.4652 44.1265 49.8553 43.7658C50.2453 43.4051 50.4774 42.9053 50.5014 42.3746L50.5732 40.3578L46.5862 40.1878Z" fill="#EDB29A"/>
<path id="Vector_88" d="M46.5453 41.0382C47.9251 42.3428 49.2377 42.904 50.3121 43.1248C50.42 42.8882 50.4841 42.634 50.5014 42.3746L50.5732 40.3578L46.5862 40.1878L46.5453 41.0382Z" fill="#D88D87"/>
<path id="Vector_89" d="M53.3752 35.8498C53.2369 39.1602 51.1762 41.7787 48.4283 41.66C45.6804 41.5412 43.8632 38.7831 44.0065 35.4545C44.1498 32.126 46.1179 30.7546 48.889 30.8603C51.6602 30.9659 53.5134 32.5394 53.3752 35.8498Z" fill="#EDB29A"/>
<path id="Vector_90" d="M53.1117 33.7007C52.5291 31.8542 50.9602 30.9474 48.8889 30.8603C46.8177 30.7733 45.5751 31.3674 44.724 32.7363C48.1223 36.2872 51.3143 35.0216 53.1117 33.7007Z" fill="#D88D87"/>
<path id="Vector_91" d="M43.5992 35.0866C43.5992 35.0866 43.7794 32.6104 45.1392 31.7356L46.9554 32.8092L44.91 33.4736L44.3331 35.5455L43.5992 35.0866Z" fill="#2A2931"/>
<path id="Vector_92" d="M53.5128 35.4961C53.5128 35.4961 53.5375 33.0158 52.2635 32.0344L50.3624 32.9544L52.3453 33.7806L52.7562 35.8926L53.5128 35.4961Z" fill="#2A2931"/>
<path id="Vector_93" d="M47.4882 36.0325C47.4834 36.1896 47.4164 36.3383 47.302 36.446C47.1875 36.5537 47.035 36.6115 46.8779 36.6068C46.7208 36.602 46.572 36.535 46.4643 36.4205C46.3566 36.3061 46.2988 36.1535 46.3036 35.9964C46.3125 35.838 46.3835 35.6894 46.5011 35.5829C46.6187 35.4764 46.7735 35.4205 46.9321 35.4272C47.0857 35.4347 47.2303 35.5024 47.3344 35.6157C47.4385 35.729 47.4937 35.8787 47.4882 36.0325Z" fill="#34344F"/>
<path id="Vector_94" d="M51.0268 36.1953C51.0257 36.2722 51.0088 36.3481 50.9774 36.4183C50.9459 36.4885 50.9005 36.5515 50.8438 36.6036C50.7872 36.6556 50.7205 36.6956 50.6479 36.721C50.5753 36.7464 50.4983 36.7567 50.4216 36.7514C50.3435 36.7501 50.2664 36.7331 50.195 36.7015C50.1235 36.6699 50.0592 36.6243 50.0056 36.5674C49.9521 36.5105 49.9105 36.4435 49.8833 36.3703C49.8561 36.2971 49.8439 36.2191 49.8473 36.1411C49.8562 35.9826 49.9272 35.8341 50.0448 35.7276C50.1624 35.621 50.3172 35.5651 50.4758 35.5719C50.553 35.5762 50.6287 35.5958 50.6984 35.6295C50.768 35.6633 50.8303 35.7105 50.8815 35.7685C50.9328 35.8265 50.972 35.8941 50.9969 35.9673C51.0219 36.0406 51.032 36.1181 51.0268 36.1953Z" fill="#34344F"/>
<path id="Vector_95" d="M49.0572 35.3924L48.523 36.8888L47.6152 36.7731C47.6152 36.7731 47.5591 37.678 48.3589 37.9006L48.0038 37.1359L48.8005 37.2989L49.0572 35.3924Z" fill="#D88D87"/>
<path id="Vector_96" d="M52.3071 36.5911C52.1137 37.4969 52.4434 38.3524 53.0533 38.4831C53.6632 38.6137 54.3019 38.0081 54.4953 37.1024C54.6887 36.1966 54.3357 35.3541 53.7309 35.2053C53.126 35.0565 52.4824 35.6803 52.3071 36.5911Z" fill="#EDB29A"/>
<path id="Vector_97" d="M52.9405 36.7084C52.8474 36.6853 52.7495 36.6923 52.6607 36.7284L52.6759 36.6739C52.8015 36.0822 53.2289 35.6724 53.6156 35.7605C54.0024 35.8486 54.2343 36.4223 54.1269 37.0191C54.0945 37.2141 54.0155 37.3984 53.8965 37.5562C53.7775 37.714 53.6222 37.8408 53.4437 37.9256C53.5511 37.3288 53.3272 36.7965 52.9405 36.7084Z" fill="#D88D87"/>
<path id="Vector_98" d="M44.8545 36.2785C44.9721 37.1925 44.5657 38.0194 43.9546 38.1039C43.3436 38.1884 42.7431 37.5316 42.6305 36.5994C42.518 35.6672 42.9375 34.8635 43.5486 34.779C44.1596 34.6946 44.7601 35.3513 44.8545 36.2785Z" fill="#EDB29A"/>
<path id="Vector_99" d="M44.2121 36.3347C44.308 36.3293 44.4041 36.3428 44.4948 36.3743C44.4767 36.3692 44.4817 36.351 44.4868 36.3329C44.4205 35.7269 44.0158 35.2813 43.6249 35.3487C43.234 35.4161 42.9499 35.9442 43.0162 36.5501C43.0247 36.7467 43.0842 36.9377 43.189 37.1042C43.2937 37.2707 43.44 37.4071 43.6135 37.4998C43.5603 36.9171 43.8212 36.4022 44.2121 36.3347Z" fill="#D88D87"/>
<path id="Vector_100" d="M49.9694 38.446C48.9554 38.5957 47.9206 38.5087 46.9459 38.1917C47.01 38.5475 47.1925 38.8711 47.4636 39.1101C47.7348 39.3491 48.0788 39.4895 48.4397 39.5085C49.7647 39.6032 49.9694 38.446 49.9694 38.446Z" fill="#34344F"/>
<path id="Vector_101" d="M47.1072 38.668L47.2123 38.5015L47.1095 38.2378C47.9901 38.4993 48.9151 38.5768 49.827 38.4656L49.6218 38.7806L49.7217 38.9846C49.5034 39.2764 49.1295 39.564 48.4398 39.5091C48.1627 39.5011 47.8928 39.4189 47.6584 39.2709C47.424 39.123 47.2336 38.9147 47.1072 38.668Z" fill="#FBF2EB"/>
<path id="Vector_102" d="M49.6557 38.8684C49.2911 38.9836 48.9069 39.0232 48.5265 38.9849C47.6813 38.9258 47.2986 38.6822 47.1735 38.569L47.1937 38.4963C48.1538 39.0574 49.6032 38.7755 49.6032 38.7755L49.6557 38.8684Z" fill="#DACEEA"/>
<path id="Vector_103" d="M46.1325 34.8518C46.6821 34.6552 47.2703 34.5908 47.8495 34.6639L47.7539 33.9519C47.7539 33.9519 46.6945 34.029 46.0237 34.4689L46.1325 34.8518Z" fill="#3E3D5E"/>
<path id="Vector_104" d="M51.2627 35.0658C50.7344 34.8212 50.155 34.707 49.5734 34.7325L49.7293 34.0317C49.7293 34.0317 50.7775 34.2061 51.4053 34.6942L51.2627 35.0658Z" fill="#3E3D5E"/>
<path id="Vector_105" d="M52.9196 32.8444C52.9196 32.8444 50.077 34.0506 47.0326 33.3792C43.9881 32.7079 43.6889 31.3908 43.785 31.0454C43.8812 30.7001 44.4246 30.5772 44.784 30.8339C44.784 30.8339 44.0971 29.2914 44.966 28.6324C45.8349 27.9735 47.0373 28.7195 47.3578 29.7488C47.3578 29.7488 47.1059 28.8953 47.618 28.7441C48.1301 28.5929 48.651 28.9729 48.6899 29.7475C48.6899 29.7475 53.0669 29.7127 52.9196 32.8444Z" fill="#2C2C31"/>
<path id="Vector_106" d="M51.8822 43.1115L50.9738 42.1535L50.4921 42.1957L48.3961 44.5889L46.5051 42.0257L46.0173 41.9486L45.0463 42.8338L46.4743 46.2865L48.3727 44.9545L50.1503 46.4482L51.8822 43.1115Z" fill="#F6F4FF"/>
<path id="Vector_107" d="M58.4949 55.5863L38.4174 54.7555L38.297 58.4234L58.3564 59.2491L58.4949 55.5863Z" fill="#AEAED6"/>
<path id="Vector_108" d="M58.3489 62.3021L38.2714 61.4713L38.2273 62.6145L58.3098 63.4271L58.3489 62.3021Z" fill="#C4C4E8"/>
<path id="Vector_109" d="M58.1819 65.9964L38.0993 65.1838L38.0603 66.3088L58.1378 67.1396L58.1819 65.9964Z" fill="#C4C4E8"/>
<path id="Vector_110" d="M58.01 69.7083L37.9325 68.8776L37.8884 70.0208L57.971 70.8333L58.01 69.7083Z" fill="#C4C4E8"/>
<path id="Vector_111" d="M57.843 73.4027L37.7604 72.5901L37.7214 73.7151L57.7989 74.5459L57.843 73.4027Z" fill="#C4C4E8"/>
<path id="Vector_112" d="M16.6902 65.5492C16.5582 65.5091 16.4425 65.4274 16.3606 65.3164C16.2786 65.2054 16.2346 65.0709 16.2351 64.9329C16.2396 64.7679 16.3093 64.6114 16.4291 64.4979C16.5488 64.3843 16.7088 64.323 16.8737 64.3273L31.389 64.667C31.5505 64.6762 31.7022 64.748 31.8118 64.8671C31.9214 64.9862 31.9802 65.1433 31.9759 65.3051C31.9717 65.4669 31.9045 65.6207 31.7888 65.7338C31.673 65.847 31.5178 65.9106 31.3559 65.9112L16.8407 65.5715L16.6902 65.5492Z" fill="#C4C4E8"/>
<path id="Vector_113" d="M16.6533 67.4391C16.5196 67.4018 16.4022 67.3209 16.3198 67.2093C16.2373 67.0976 16.1945 66.9616 16.1982 66.8228C16.1978 66.7404 16.2143 66.6587 16.2467 66.5829C16.2791 66.507 16.3267 66.4386 16.3865 66.3819C16.4464 66.3251 16.5172 66.2813 16.5946 66.2529C16.6721 66.2246 16.7545 66.2125 16.8368 66.2172L29.5039 66.5125C29.5876 66.5123 29.6705 66.5289 29.7475 66.5615C29.8246 66.594 29.8943 66.6417 29.9526 66.7018C30.0108 66.7619 30.0563 66.8331 30.0864 66.9111C30.1165 66.9892 30.1305 67.0725 30.1277 67.1561C30.1143 67.3179 30.0418 67.4691 29.924 67.5808C29.8062 67.6925 29.6514 67.7569 29.4891 67.7617L16.8038 67.4614L16.6533 67.4391Z" fill="#C4C4E8"/>
<path id="Vector_114" d="M52.2383 57.7736C59.4612 53.6966 62.0116 44.5363 57.9346 37.3133C53.8576 30.0904 44.6972 27.5401 37.4743 31.617C30.2513 35.694 27.701 44.8544 31.778 52.0773C35.855 59.3003 45.0154 61.8506 52.2383 57.7736Z" stroke="#4C4C72" stroke-width="2.25881" stroke-miterlimit="10"/>
</g>
<defs>
<filter id="filter0_d_696_1984" x="19.6189" y="12.9036" width="50.3829" height="71.2828" filterUnits="userSpaceOnUse" color-interpolation-filters="sRGB">
<feFlood flood-opacity="0" result="BackgroundImageFix"/>
<feColorMatrix in="SourceAlpha" type="matrix" values="0 0 0 0 0 0 0 0 0 0 0 0 0 0 0 0 0 0 127 0" result="hardAlpha"/>
<feOffset dy="2.25881"/>
<feGaussianBlur stdDeviation="1.97645"/>
<feComposite in2="hardAlpha" operator="out"/>
<feColorMatrix type="matrix" values="0 0 0 0 0 0 0 0 0 0 0 0 0 0 0 0 0 0 0.25 0"/>
<feBlend mode="normal" in2="BackgroundImageFix" result="effect1_dropShadow_696_1984"/>
<feBlend mode="normal" in="SourceGraphic" in2="effect1_dropShadow_696_1984" result="shape"/>
</filter>
<filter id="filter1_d_696_1984" x="8.64279" y="10.5178" width="59.2925" height="75.6265" filterUnits="userSpaceOnUse" color-interpolation-filters="sRGB">
<feFlood flood-opacity="0" result="BackgroundImageFix"/>
<feColorMatrix in="SourceAlpha" type="matrix" values="0 0 0 0 0 0 0 0 0 0 0 0 0 0 0 0 0 0 127 0" result="hardAlpha"/>
<feOffset dy="2.25881"/>
<feGaussianBlur stdDeviation="1.97645"/>
<feComposite in2="hardAlpha" operator="out"/>
<feColorMatrix type="matrix" values="0 0 0 0 0 0 0 0 0 0 0 0 0 0 0 0 0 0 0.25 0"/>
<feBlend mode="normal" in2="BackgroundImageFix" result="effect1_dropShadow_696_1984"/>
<feBlend mode="normal" in="SourceGraphic" in2="effect1_dropShadow_696_1984" result="shape"/>
</filter>
<filter id="filter2_d_696_1984" x="50.571" y="55.426" width="31.8433" height="35.7232" filterUnits="userSpaceOnUse" color-interpolation-filters="sRGB">
<feFlood flood-opacity="0" result="BackgroundImageFix"/>
<feColorMatrix in="SourceAlpha" type="matrix" values="0 0 0 0 0 0 0 0 0 0 0 0 0 0 0 0 0 0 127 0" result="hardAlpha"/>
<feOffset dy="2.25881"/>
<feGaussianBlur stdDeviation="1.97645"/>
<feComposite in2="hardAlpha" operator="out"/>
<feColorMatrix type="matrix" values="0 0 0 0 0 0 0 0 0 0 0 0 0 0 0 0 0 0 0.25 0"/>
<feBlend mode="normal" in2="BackgroundImageFix" result="effect1_dropShadow_696_1984"/>
<feBlend mode="normal" in="SourceGraphic" in2="effect1_dropShadow_696_1984" result="shape"/>
</filter>
</defs>
</svg>
