<svg width="185" height="139" viewBox="0 0 185 139" fill="none" xmlns="http://www.w3.org/2000/svg">
<g id="Group 4431">
<g id="support/solid">
<g id="support_solid">
<g id="woman">
<g id="body">
<path id="clothing" fill-rule="evenodd" clip-rule="evenodd" d="M161.863 108.307C161.119 107.838 155.667 102.559 154.807 102.656C150.136 96.2075 138.474 82.6678 132.846 79.1892C118.19 70.1607 98.061 72.7403 79.2808 79.6973C66.3634 84.4657 50.0065 99.865 39.5123 110.77C25.8326 111.805 15.3189 121.107 15.9442 131.758C16.081 134.084 16.7455 136.272 17.8203 138.285L63.7252 138.598C63.8033 138.481 63.8815 138.344 63.9597 138.227L132.045 137.992C132.123 138.09 132.201 138.187 132.28 138.305L169.977 138.246C173.475 133.615 172.285 130.151 172.285 123.683C170.318 119.57 169.977 113.432 161.863 108.307Z" fill="#DBDBDB"/>
<g id="clothing_lines">
<path id="Path" fill-rule="evenodd" clip-rule="evenodd" d="M134.195 80.0684C116.861 90.8166 101.305 91.0511 91.2212 89.3119C81.88 87.7094 75.1379 84.1136 72.9491 82.7066C72.5778 82.9215 72.2065 83.1365 71.8157 83.3515C73.6136 84.5826 80.6488 88.6474 90.8108 90.4258C94.133 91.0121 97.4747 91.3052 100.836 91.3052C104.256 91.3052 107.676 91.0121 111.076 90.4062C119.303 88.9406 127.414 85.7161 135.23 80.811C134.879 80.5374 134.546 80.3029 134.195 80.0684Z" fill="white"/>
<path id="Path_2" fill-rule="evenodd" clip-rule="evenodd" d="M132.397 98.5356C135.153 94.6662 138.553 92.497 142.52 92.0671C144.357 91.8717 145.901 92.1257 146.819 92.3407C146.448 91.8717 146.077 91.4027 145.705 90.9532C144.806 90.8359 143.692 90.7773 142.461 90.9141C139.471 91.2268 135.133 92.6729 131.439 97.8712C131.244 98.1252 131.322 98.4965 131.576 98.6919C131.674 98.7701 131.791 98.8092 131.908 98.8092C132.104 98.7896 132.28 98.7115 132.397 98.5356Z" fill="white"/>
<path id="Path_3" fill-rule="evenodd" clip-rule="evenodd" d="M132.612 112.274C132.944 112.274 133.198 112.02 133.218 111.708C133.257 109.988 133.941 106.079 136.344 102.405C139.119 98.1257 143.223 95.507 148.5 94.569C148.246 94.2172 147.992 93.8654 147.718 93.5137C142.442 94.5885 138.181 97.4221 135.348 101.761C132.983 105.395 132.084 109.382 132.026 111.668C132.026 112.001 132.28 112.274 132.612 112.274Z" fill="white"/>
<path id="Path_4" fill-rule="evenodd" clip-rule="evenodd" d="M49.8111 106.509C47.3293 106.411 44.9451 106.645 43.1863 107.017C42.6 107.603 42.0137 108.189 41.447 108.775C43.6162 107.583 55.967 106.098 61.0675 111.902C61.1847 112.039 61.3411 112.098 61.517 112.098C61.6538 112.098 61.7906 112.059 61.9078 111.961C62.1423 111.746 62.1814 111.375 61.9664 111.14C58.6638 107.368 52.9379 106.626 49.8111 106.509Z" fill="white"/>
<g id="Group">
<path id="Path_5" fill-rule="evenodd" clip-rule="evenodd" d="M39.1217 110.809C39.1217 110.809 39.1413 110.809 39.1608 110.809C39.1413 110.79 39.1217 110.809 39.1217 110.809C39.1217 110.809 39.1021 110.809 39.1217 110.809Z" fill="white"/>
<path id="Path_6" fill-rule="evenodd" clip-rule="evenodd" d="M59.8557 114.893C52.9573 109.675 44.3587 109.363 40.7238 109.519C40.3134 109.949 39.9031 110.359 39.5122 110.77C41.6032 110.594 51.5894 110.125 59.1522 115.831C59.2499 115.909 59.3867 115.948 59.504 115.948C59.6799 115.948 59.8557 115.87 59.973 115.714C60.1684 115.46 60.1098 115.088 59.8557 114.893Z" fill="white"/>
</g>
</g>
<path id="hand" fill-rule="evenodd" clip-rule="evenodd" d="M30.054 138.11C30.054 138.11 36.4638 119.154 54.5014 122.593C72.5389 126.032 97.2209 133.419 97.2209 133.419V138.168L30.054 138.11Z" fill="white"/>
<path id="hand_2" fill-rule="evenodd" clip-rule="evenodd" d="M166.968 138.11C166.968 138.11 160.558 119.154 142.52 122.593C124.483 126.032 99.8009 133.419 99.8009 133.419V138.168L166.968 138.11Z" fill="white"/>
<path id="hand_2_" fill-rule="evenodd" clip-rule="evenodd" d="M42.0545 123.373C38.9884 124.803 36.3603 127.009 34.1403 129.775C32.7131 131.554 31.5394 133.457 30.6012 135.36C30.2725 136.027 29.9965 136.647 29.7709 137.205L29.6754 137.445C29.6457 137.521 29.6182 137.593 29.5928 137.661L29.517 137.868C29.5093 137.89 29.5032 137.908 29.4986 137.921C29.3702 138.301 29.6525 138.695 30.0535 138.695L97.2204 138.754C97.5444 138.754 97.8072 138.492 97.8072 138.168V133.419C97.8072 133.16 97.6372 132.931 97.389 132.857L96.6089 132.626L95.5551 132.317C94.0849 131.887 92.4225 131.409 90.6019 130.894C85.4 129.422 79.9715 127.95 74.587 126.576C71.8806 125.885 69.2489 125.236 66.7117 124.635L65.9997 124.467C61.8641 123.496 58.0471 122.672 54.6112 122.017C49.9365 121.125 45.7536 121.646 42.0545 123.373ZM54.3916 123.168C58.0053 123.857 62.0471 124.736 66.4415 125.776C68.9718 126.375 71.5969 127.023 74.297 127.712C79.388 129.011 84.5196 130.398 89.4608 131.79L90.2825 132.022C91.9347 132.489 93.4562 132.927 94.8214 133.324L96.6346 133.856V137.581L30.9072 137.523L30.9606 137.394C31.1555 136.929 31.3859 136.42 31.6529 135.878C32.5555 134.047 33.685 132.216 35.0548 130.509C37.1691 127.874 39.6604 125.784 42.5503 124.435C46.0262 122.813 49.9587 122.323 54.3916 123.168Z" fill="#2E186A"/>
<path id="hand_2__2" fill-rule="evenodd" clip-rule="evenodd" d="M154.968 123.373C158.034 124.803 160.662 127.009 162.882 129.775C164.309 131.554 165.483 133.457 166.421 135.36C166.749 136.027 167.026 136.647 167.251 137.205L167.347 137.445C167.376 137.521 167.404 137.593 167.429 137.661L167.505 137.868C167.513 137.89 167.519 137.908 167.523 137.921C167.652 138.301 167.369 138.695 166.968 138.695L99.8016 138.754C99.4776 138.754 99.2148 138.492 99.2148 138.168V133.419C99.2148 133.16 99.3848 132.931 99.633 132.857L100.413 132.626L101.467 132.317C102.937 131.887 104.599 131.409 106.42 130.894C111.622 129.422 117.05 127.95 122.435 126.576C125.141 125.885 127.773 125.236 130.31 124.635L131.022 124.467C135.158 123.496 138.975 122.672 142.411 122.017C147.085 121.125 151.268 121.646 154.968 123.373ZM142.63 123.168C139.016 123.857 134.974 124.736 130.58 125.776C128.05 126.375 125.425 127.023 122.725 127.712C117.633 129.011 112.502 130.398 107.561 131.79L106.739 132.022C105.087 132.489 103.565 132.927 102.2 133.324L100.387 133.856V137.581L166.114 137.523L166.061 137.394C165.866 136.929 165.636 136.42 165.369 135.878C164.466 134.047 163.337 132.216 161.967 130.509C159.852 127.874 157.361 125.784 154.471 124.435C150.995 122.813 147.063 122.323 142.63 123.168Z" fill="#2E186A"/>
</g>
<g id="head">
<path id="neck" fill-rule="evenodd" clip-rule="evenodd" d="M93.4688 65.9792L94.2309 79.7957C94.2309 79.7957 92.9411 87.2608 103.299 85.8733C113.617 84.5054 112.347 78.3886 112.347 78.3886L109.161 61.2305L93.4688 65.9792Z" fill="white"/>
<path id="neck_2_" fill-rule="evenodd" clip-rule="evenodd" d="M108.992 60.6689L93.299 65.4177C93.0402 65.496 92.8686 65.7411 92.8835 66.0111L93.6424 79.7668L93.6343 79.8294C93.6302 79.8637 93.626 79.9023 93.6218 79.9451C93.5256 80.9378 93.6372 82.0696 94.1247 83.1594C95.315 85.8207 98.2805 87.1366 103.376 86.454C107.536 85.9025 110.241 84.554 111.725 82.6223C112.804 81.2184 113.096 79.7423 112.954 78.4905L112.944 78.4111C112.938 78.3623 112.931 78.3221 112.925 78.2908L109.738 61.123C109.674 60.7796 109.326 60.5677 108.992 60.6689ZM94.0795 66.4064L108.704 61.9807L111.776 78.5254C111.78 78.5492 111.784 78.5808 111.789 78.6231C111.9 79.597 111.666 80.7742 110.795 81.908C109.518 83.5704 107.095 84.7782 103.221 85.2917C98.6028 85.9105 96.1534 84.8236 95.1949 82.6807C94.8031 81.8045 94.7105 80.8661 94.7888 80.0583L94.7976 79.9757C94.8022 79.9368 94.8061 79.9096 94.8086 79.8951L94.8145 79.8513C94.8173 79.8219 94.8179 79.7924 94.8163 79.763L94.0795 66.4064Z" fill="#2E186A"/>
<path id="ear" fill-rule="evenodd" clip-rule="evenodd" d="M113.128 43.798C113.128 43.798 121.141 40.7885 121.453 49.1331C121.766 57.4776 113.128 55.3084 113.128 55.3084" fill="white"/>
<path id="ear_2_" fill-rule="evenodd" clip-rule="evenodd" d="M113.904 42.9632C115.062 42.6896 116.256 42.5915 117.39 42.7763C120.152 43.2263 121.894 45.2467 122.039 49.1111C122.189 53.1069 120.41 55.2941 117.42 55.9484C116.203 56.2147 114.922 56.1991 113.71 56.0149L113.521 55.9847C113.283 55.9445 113.1 55.9059 112.986 55.877C112.672 55.7982 112.481 55.4797 112.56 55.1656C112.636 54.8628 112.935 54.6747 113.238 54.7324L113.365 54.7611L113.425 54.7739C113.56 54.8016 113.714 54.8296 113.887 54.8557C114.968 55.0202 116.114 55.0341 117.17 54.803C119.616 54.2676 120.996 52.5716 120.868 49.155L120.859 48.9564C120.689 45.7807 119.362 44.2856 117.201 43.9336C116.242 43.7772 115.194 43.8632 114.174 44.1043C113.977 44.151 113.794 44.2004 113.63 44.25L113.55 44.2748C113.49 44.2936 113.441 44.3098 113.403 44.3226L113.335 44.3468C113.031 44.4607 112.693 44.3073 112.58 44.0042C112.466 43.701 112.619 43.363 112.922 43.2492L112.998 43.2217C113.201 43.1499 113.511 43.0561 113.904 42.9632Z" fill="#2E186A"/>
<path id="face" fill-rule="evenodd" clip-rule="evenodd" d="M98.1004 70.1805C89.4237 70.1805 82.3884 63.1453 82.3884 54.4685V40.7498C82.3884 35.1998 86.9027 30.6855 92.4527 30.6855H106.211C110.412 30.6855 113.832 34.1055 113.832 38.307V54.449C113.832 63.1258 106.797 70.1805 98.1004 70.1805Z" fill="white"/>
<path id="face_2_" fill-rule="evenodd" clip-rule="evenodd" d="M106.21 30.0996H92.4526C86.5788 30.0996 81.802 34.8764 81.802 40.7502V54.4689C81.802 63.4694 89.0997 70.7671 98.1003 70.7671L98.3654 70.765C107.27 70.6206 114.418 63.356 114.418 54.4493V38.3074C114.418 33.782 110.736 30.0996 106.21 30.0996ZM92.4526 31.2722H106.21C110.088 31.2722 113.246 34.4296 113.246 38.3074V54.4494C113.246 62.7158 106.611 69.4586 98.3512 69.5926L98.0956 69.5947C89.7473 69.5947 82.9746 62.8219 82.9746 54.4689V40.7502C82.9746 35.524 87.2264 31.2722 92.4526 31.2722Z" fill="#2E186A"/>
<g id="headphones">
<path id="Path_7" fill-rule="evenodd" clip-rule="evenodd" d="M117.486 61.8948C117.467 56.5598 116.724 52.6709 116.529 51.6938C116.529 51.6351 116.548 51.557 116.548 51.4983C116.548 50.2672 115.552 49.2705 114.32 49.2705V51.4983L114.379 53.7262C114.848 53.7066 115.278 53.5503 115.63 53.2962C116.353 57.791 117.779 71.197 111.76 82.5901C110.666 84.6812 109.63 86.6159 108.614 88.4724C102.947 99.0448 99.1947 106.041 99.2924 112.275C99.2924 112.588 99.566 112.861 99.8787 112.861C100.211 112.861 100.465 112.588 100.465 112.275C100.387 106.334 104.08 99.4552 109.65 89.0391C110.646 87.163 111.682 85.2479 112.796 83.1373C116.724 75.6917 117.525 67.4839 117.486 61.8948Z" fill="#1a41b6"/>
<path id="Path_8" fill-rule="evenodd" clip-rule="evenodd" d="M80.864 53.9799C81.1375 54.1362 81.4307 54.2339 81.7629 54.2535V49.8174C80.7272 49.9151 79.9064 50.6968 79.7696 51.713C79.711 51.8107 79.6719 51.928 79.6719 52.0452C79.6719 52.9442 79.6719 73.9912 85.9254 83.4888C92.3157 93.2208 94.2895 98.7709 94.739 108.19C94.7585 108.503 95.0126 108.757 95.3253 108.757H95.3448C95.677 108.737 95.9115 108.464 95.9115 108.151C95.4621 98.4582 93.4492 92.7909 86.9025 82.8439C81.8997 75.2615 81.0203 59.4713 80.864 53.9799Z" fill="#1a41b6"/>
</g>
<path id="nose" fill-rule="evenodd" clip-rule="evenodd" d="M93.2829 44.4434C93.595 44.4381 93.8544 44.6778 93.8774 44.9853L93.879 45.0197L94.0896 57.4259L94.0987 57.4294C94.1413 57.4432 94.1883 57.4402 94.2529 57.4164L94.2817 57.4049C94.5831 57.2759 94.9802 56.8397 95.436 56.005C95.5912 55.7208 95.9474 55.6163 96.2316 55.7715C96.5157 55.9266 96.6203 56.2828 96.4651 56.567C95.394 58.5284 94.2415 59.0215 93.3208 58.3257C93.1841 58.2224 93.0879 58.1161 93.0265 58.0278C92.9684 57.9443 92.9332 57.8473 92.9239 57.7464L92.9216 57.703L92.7066 45.0396C92.7011 44.7158 92.9591 44.4489 93.2829 44.4434Z" fill="#2E186A"/>
<path id="mouth" fill-rule="evenodd" clip-rule="evenodd" d="M99.4598 59.2738C99.7869 59.0597 100.228 59.2196 100.342 59.5935L100.355 59.6419C100.37 59.6961 100.386 59.7673 100.401 59.8538C100.521 60.5408 100.456 61.3009 100.063 62.0287C99.4085 63.2413 97.9937 64.0318 95.7149 64.2562C95.3927 64.288 95.1057 64.0525 95.074 63.7302C95.0423 63.408 95.2778 63.1211 95.6 63.0893C97.5188 62.9004 98.5802 62.3073 99.0314 61.4716C99.1426 61.2656 99.2129 61.052 99.2498 60.8387L99.2624 60.7559L99.2446 60.7657C96.6962 62.1381 94.1505 62.2296 92.8888 60.8183L92.8468 60.7701C92.6366 60.5238 92.666 60.1537 92.9124 59.9436C93.1587 59.7335 93.5288 59.7629 93.7389 60.0092C94.6459 61.0726 97.0466 60.853 99.4598 59.2738Z" fill="#2E186A"/>
<path id="brow" fill-rule="evenodd" clip-rule="evenodd" d="M98.6218 39.869C99.901 38.896 101.42 38.7921 103.058 40.0951C103.311 40.2966 103.353 40.6655 103.152 40.9189C102.95 41.1723 102.581 41.2143 102.328 41.0127C101.143 40.0698 100.211 40.1336 99.3316 40.8022C99.2127 40.8927 99.1067 40.9852 98.9922 41.0952L98.7769 41.3079C98.7467 41.337 98.721 41.3603 98.6935 41.3826C98.6178 41.4438 98.5519 41.485 98.4381 41.5135C98.124 41.592 97.8056 41.4011 97.7271 41.0869C97.6682 40.8513 97.7609 40.6134 97.9435 40.476L97.9689 40.4577L98.0973 40.3302C98.2729 40.1563 98.4325 40.013 98.6218 39.869Z" fill="#2E186A"/>
<path id="eye_II" fill-rule="evenodd" clip-rule="evenodd" d="M102.693 50.2664C103.232 50.2664 103.67 49.5926 103.67 48.7616C103.67 47.9305 103.232 47.2568 102.693 47.2568C102.153 47.2568 101.716 47.9305 101.716 48.7616C101.716 49.5926 102.153 50.2664 102.693 50.2664Z" fill="#2E186A"/>
<path id="eye" fill-rule="evenodd" clip-rule="evenodd" d="M88.4854 50.6384C89.0251 50.6384 89.4625 49.9647 89.4625 49.1337C89.4625 48.3026 89.0251 47.6289 88.4854 47.6289C87.9458 47.6289 87.5083 48.3026 87.5083 49.1337C87.5083 49.9647 87.9458 50.6384 88.4854 50.6384Z" fill="#2E186A"/>
<path id="brow_II" fill-rule="evenodd" clip-rule="evenodd" d="M85.7602 39.6842C87.2236 38.5168 88.8283 38.4619 90.2378 40.2721C90.4367 40.5276 90.3908 40.896 90.1353 41.0949C89.8799 41.2938 89.5115 41.248 89.3126 40.9925C88.3612 39.7705 87.4951 39.8001 86.4914 40.6008C86.3555 40.7091 86.2329 40.8198 86.0973 40.9525L85.8669 41.1824C85.8358 41.2127 85.81 41.2366 85.7831 41.2589C85.703 41.3256 85.6405 41.3665 85.5203 41.3965C85.2062 41.475 84.8879 41.284 84.8094 40.9699C84.7505 40.7343 84.8432 40.4964 85.0257 40.359L85.0483 40.3429L85.1992 40.1916C85.3916 39.9992 85.5619 39.8423 85.7602 39.6842Z" fill="#2E186A"/>
<g id="hair_shape">
<path id="Path_9" fill-rule="evenodd" clip-rule="evenodd" d="M102.029 27.2658C98.2178 27.3244 95.3255 27.5003 93.6058 27.8325C79.6135 31.0179 81.8804 41.3753 81.8804 41.3753C81.8804 41.3753 88.7202 42.6846 94.2898 34.4378C94.2898 34.4378 101.931 40.6718 113.246 43.1927C113.422 43.1537 113.637 43.095 113.832 43.0364V43.6031C114.497 43.4273 115.571 43.2318 116.685 43.31C116.568 39.2257 115.825 34.0665 112.464 30.7443C110.08 28.3797 106.562 27.2071 102.029 27.2658Z" fill="#263238"/>
<path id="Path_10" fill-rule="evenodd" clip-rule="evenodd" d="M93.9158 26.5676C96.1453 26.2579 99.6553 26.0545 102.679 26.0735C108.72 26.1375 112.756 28.363 115.148 32.2881C116.09 33.8334 116.747 35.5922 117.189 37.5652C117.516 39.0218 117.691 40.3565 117.855 42.2427C117.884 42.5653 117.645 42.8495 117.322 42.8776C117 42.9057 116.715 42.667 116.687 42.3445L116.656 41.9937C116.291 38.0564 115.666 35.3908 114.147 32.8984C111.969 29.3238 108.308 27.3057 102.67 27.246L102.325 27.2448C99.4378 27.2429 96.1639 27.4392 94.0771 27.729C93.7564 27.7735 93.4603 27.5496 93.4158 27.2289C93.3713 26.9082 93.5951 26.6121 93.9158 26.5676Z" fill="white"/>
<path id="Path_11" fill-rule="evenodd" clip-rule="evenodd" d="M138.748 18.7647C133.921 4.96779 120.242 -2.7905 108.184 1.43064C98.2762 4.88962 92.5503 15.3838 93.4883 26.6598C95.3058 26.3471 98.159 26.1517 102.028 26.093C106.894 26.0344 110.686 27.3046 113.304 29.9038C117.017 33.5777 117.779 39.1473 117.877 43.4857C119.675 43.9742 121.336 45.4399 121.473 49.1334C121.492 49.5047 121.16 52.3774 121.238 52.3579C121.238 53.2764 121.434 54.4294 122.118 55.5628C123.466 57.732 126.202 59.0804 130.267 59.5495C130.286 59.5495 130.306 59.5495 130.345 59.5495C130.638 59.5495 130.892 59.3345 130.931 59.0414C130.97 58.7287 130.736 58.4355 130.423 58.3965C126.749 57.9665 124.287 56.8135 123.134 54.957C122.665 54.2144 122.489 53.4523 122.43 52.7878C123.427 53.9604 125.166 55.2306 127.922 55.2306C128.586 55.2306 129.309 55.1524 130.091 54.9961C130.404 54.9375 130.619 54.6248 130.541 54.3121C130.482 53.9994 130.169 53.7845 129.857 53.8626C126.3 54.6052 124.326 53.2568 123.29 52.0452C124.092 51.8693 124.873 51.6544 125.655 51.3808C137.693 47.1401 143.556 32.542 138.748 18.7647Z" fill="#263238"/>
</g>
<g id="glasses">
<path id="Oval" fill-rule="evenodd" clip-rule="evenodd" d="M103.533 41.3945C99.2592 41.3945 95.7944 44.8593 95.7944 49.1333C95.7944 53.4073 99.2592 56.872 103.533 56.872C107.807 56.872 111.272 53.4073 111.272 49.1333C111.272 44.8593 107.807 41.3945 103.533 41.3945ZM103.533 42.5669C107.159 42.5669 110.099 45.5067 110.099 49.1332C110.099 52.7596 107.159 55.6994 103.533 55.6994C99.9066 55.6994 96.9668 52.7596 96.9668 49.1332C96.9668 45.5067 99.9066 42.5669 103.533 42.5669Z" fill="#2E186A"/>
<path id="Path_12" fill-rule="evenodd" clip-rule="evenodd" d="M96.2242 48.3711C96.5479 48.3711 96.8104 48.6336 96.8104 48.9574C96.8104 49.2696 96.5664 49.5248 96.2586 49.5426L96.2242 49.5436H91.5731C91.2493 49.5436 90.9868 49.2812 90.9868 48.9574C90.9868 48.6451 91.2309 48.3899 91.5386 48.3721L91.5731 48.3711H96.2242Z" fill="#2E186A"/>
<path id="Path_13" fill-rule="evenodd" clip-rule="evenodd" d="M113.543 42.8777C113.825 42.7184 114.183 42.8178 114.342 43.0997C114.495 43.3711 114.409 43.7128 114.151 43.88L114.12 43.8985L110.075 46.185C109.793 46.3443 109.435 46.2449 109.276 45.9631C109.123 45.6916 109.209 45.3499 109.467 45.1827L109.498 45.1642L113.543 42.8777Z" fill="#2E186A"/>
<path id="Oval_2" fill-rule="evenodd" clip-rule="evenodd" d="M84.186 41.3945C79.912 41.3945 76.4473 44.8593 76.4473 49.1333C76.4473 53.4073 79.912 56.872 84.186 56.872C88.46 56.872 91.9248 53.4073 91.9248 49.1333C91.9248 44.8593 88.46 41.3945 84.186 41.3945ZM84.1861 42.5669C87.8125 42.5669 90.7523 45.5067 90.7523 49.1332C90.7523 52.7596 87.8125 55.6994 84.1861 55.6994C80.5597 55.6994 77.6199 52.7596 77.6199 49.1332C77.6199 45.5067 80.5597 42.5669 84.1861 42.5669Z" fill="#2E186A"/>
</g>
</g>
</g>
<g id="laptop">
<path id="shape" fill-rule="evenodd" clip-rule="evenodd" d="M133.374 130.782H129.309L127.316 101.214C127.179 99.1426 125.381 97.4619 123.31 97.4619H66.6567C64.5852 97.4619 63.0023 99.1426 63.1586 101.214L65.3669 133.947C65.5037 136.019 67.3016 137.7 69.3731 137.7L133.355 137.621C134.527 137.621 135.465 136.664 135.465 135.511V132.912C135.485 131.739 134.547 130.782 133.374 130.782Z" fill="#1a41b6"/>
</g>
<path id="L" d="M92.7283 114.172L94.4162 114.216L95.5304 120.505L99.6072 120.612L99.5654 122.212L93.9887 122.066L92.7283 114.172Z" fill="white"/>
<path id="line" fill-rule="evenodd" clip-rule="evenodd" d="M184.281 137.663C184.53 137.663 184.731 137.926 184.731 138.249C184.731 138.562 184.544 138.817 184.307 138.835L184.281 138.836H1.09361C0.844649 138.836 0.642822 138.573 0.642822 138.249C0.642822 137.937 0.83049 137.682 1.06713 137.664L1.09361 137.663H184.281Z" fill="#2E186A"/>
</g>
</g>
</g>
</svg>
