<svg width="82" height="93" viewBox="0 0 82 93" fill="none" xmlns="http://www.w3.org/2000/svg">
<g id="Skill Assesment">
<g id="path540" filter="url(#filter0_d_696_2108)">
<path d="M55.161 87.2598L3.99951 72.7139L23.4744 4.21591L74.6359 18.7618L55.161 87.2598Z" fill="url(#paint0_linear_696_2108)" shape-rendering="crispEdges"/>
</g>
<path id="path542" d="M20.6036 54.0418C20.9046 54.5799 20.9999 55.2315 20.8183 55.8704C20.455 57.1482 19.1214 57.8883 17.8399 57.524C16.5584 57.1596 15.8131 55.8284 16.1764 54.5506L14.3991 54.0453C13.7576 56.3017 15.0729 58.6516 17.3364 59.2952C19.5998 59.9387 21.9547 58.6323 22.5962 56.3759C22.917 55.2477 22.7478 54.0967 22.2163 53.1467L20.6036 54.0418Z" fill="#263238"/>
<path id="path544" d="M18.9056 52.8817L19.2224 51.073C17.0953 50.6954 14.9894 51.9703 14.3901 54.0781L16.1693 54.584C16.5086 53.3904 17.7012 52.668 18.9056 52.8817Z" fill="#E6E6E6"/>
<path id="path546" d="M19.132 52.963C19.7688 53.1441 20.2712 53.5667 20.5694 54.1041L22.174 53.2061C21.6475 52.2572 20.7597 51.5105 19.6358 51.191C19.4942 51.1507 19.352 51.1177 19.2105 51.0931L18.8906 52.907C18.9714 52.9218 19.052 52.9403 19.132 52.963Z" fill="#A8A8A8"/>
<path id="path548" d="M29.0187 60.7753C27.741 60.412 27.005 59.0673 27.3738 57.7702L25.602 57.2664C24.951 59.5563 26.252 61.932 28.5075 62.5733C29.6349 62.8938 30.7885 62.7204 31.7408 62.1802L30.85 60.5528C30.31 60.8585 29.6568 60.9567 29.0187 60.7753Z" fill="#263238"/>
<path id="path550" d="M33.3971 56.3962C32.8571 55.4438 31.9499 54.6919 30.8056 54.3666L30.302 56.1378C30.9497 56.322 31.4631 56.7483 31.7699 57.2872C32.0749 57.8271 32.1737 58.4805 31.9922 59.1187C31.8106 59.7576 31.383 60.2606 30.8398 60.5586L31.7549 62.1724C32.7152 61.6466 33.4692 60.758 33.7899 59.6298C34.1105 58.5023 33.9371 57.3486 33.3971 56.3962Z" fill="#E6E6E6"/>
<path id="path552" d="M30.3814 54.2693C29.784 54.1634 29.1881 54.1919 28.627 54.3333C28.0072 54.4896 27.4311 54.7849 26.943 55.195C26.3205 55.7177 25.8413 56.4253 25.6021 57.2666L27.3596 57.7663C27.6971 56.5792 28.8768 55.8588 30.0662 56.069C30.1462 56.0829 30.2263 56.1012 30.3059 56.1239L30.8054 54.367C30.6645 54.327 30.5235 54.295 30.3814 54.2693Z" fill="#A8A8A8"/>
<path id="path554" d="M42.9674 65.3601C43.0972 65.2874 43.2236 65.2086 43.3437 65.125C43.8525 64.7708 44.2628 64.3211 44.5661 63.8155C44.9007 63.2558 45.1029 62.6269 45.1589 61.9797C45.2305 61.1531 45.064 60.2979 44.6283 59.5184L40.8655 61.6059L42.9674 65.3601Z" fill="#263238"/>
<path id="path556" d="M39.6872 65.7525L42.0178 57.5553C40.9806 57.2604 39.8303 57.3659 38.8119 57.9412C37.7929 58.5164 37.0991 59.4535 36.8009 60.5024C36.5027 61.5512 36.5999 62.7124 37.1639 63.7377C37.7272 64.7628 38.65 65.4576 39.6872 65.7525Z" fill="#E6E6E6"/>
<path id="path558" d="M39.687 65.752C40.7439 66.0524 41.9151 65.948 42.9531 65.3682L40.8657 61.6063L39.687 65.752Z" fill="#0169EE"/>
<path id="path560" d="M44.6011 59.5719C44.0182 58.5512 43.0745 57.8555 42.0176 57.555L40.8657 61.6064L44.6011 59.5719Z" fill="#EDECF5"/>
<path id="path562" d="M55.8337 62.7796C55.3029 61.827 54.4086 61.077 53.2764 60.7551L52.1111 64.8541L48.0128 63.6889C47.691 64.821 47.8584 65.9755 48.3892 66.928C48.9201 67.8806 49.8144 68.6306 50.9459 68.9523C52.078 69.2742 53.2332 69.1069 54.1857 68.5761C55.1383 68.0452 55.8881 67.1516 56.21 66.0194C56.5317 64.888 56.3646 63.7321 55.8337 62.7796Z" fill="#E6E6E6"/>
<path id="path564" d="M50.0448 61.0585C49.8101 61.1929 49.5872 61.3479 49.3802 61.5247C48.7534 62.0601 48.2703 62.7835 48.0264 63.6416L52.0778 64.7935L50.0448 61.0585Z" fill="#0169EE"/>
<path id="path566" d="M53.2295 60.7424C53.0904 60.7029 52.9511 60.6714 52.8115 60.6464C52.2221 60.5428 51.6324 60.5731 51.0774 60.7162C50.723 60.8082 50.3828 60.9469 50.0652 61.1266L52.0776 64.7939L53.2295 60.7424Z" fill="#A8A8A8"/>
<path id="path568" d="M19.0775 37.5901L18.6489 39.0977L31.5571 42.7676L31.9857 41.2601L19.0775 37.5901Z" fill="#E6E6E6"/>
<path id="path570" d="M38.3932 43.0816L31.9862 41.2601L31.5576 42.7676L37.9646 44.5892L38.3932 43.0816Z" fill="#0169EE"/>
<path id="path572" d="M18.14 40.8875L17.6846 42.4893L27.6719 45.3288L28.1273 43.7271L18.14 40.8875Z" fill="#E6E6E6"/>
<path id="path574" d="M37.4551 46.3794L28.1273 43.7274L27.6719 45.3291L36.9997 47.9811L37.4551 46.3794Z" fill="#0169EE"/>
<path id="path576" d="M17.1757 44.2796L16.7471 45.7871L22.3061 47.3676L22.7347 45.8601L17.1757 44.2796Z" fill="#E6E6E6"/>
<path id="path578" d="M36.4909 49.7717L22.7348 45.8606L22.3062 47.3682L36.0623 51.2792L36.4909 49.7717Z" fill="#0169EE"/>
<path id="path580" d="M39.1719 52.1621L39.6005 50.6546L52.6028 54.3513L52.1742 55.8589L39.1719 52.1621Z" fill="#E6E6E6"/>
<path id="path582" d="M58.5808 57.681L52.1738 55.8594L52.6024 54.3519L59.0094 56.1734L58.5808 57.681Z" fill="#0169EE"/>
<path id="path584" d="M40.1094 48.8652L40.5648 47.2635L50.6463 50.1298L50.1909 51.7316L40.1094 48.8652Z" fill="#E6E6E6"/>
<path id="path586" d="M59.5187 54.3835L50.1909 51.7314L50.6463 50.1297L59.9741 52.7817L59.5187 54.3835Z" fill="#0169EE"/>
<path id="path588" d="M41.0737 45.4727L41.5023 43.9651L47.1555 45.5724L46.7269 47.0799L41.0737 45.4727Z" fill="#E6E6E6"/>
<path id="path590" d="M60.4832 50.9911L46.7271 47.0801L47.1557 45.5726L60.9118 49.4836L60.4832 50.9911Z" fill="#0169EE"/>
<path id="path594" d="M28.4723 24.0687C30.9291 24.7672 32.1926 23.3406 32.4991 22.2626C32.8056 21.1846 32.5671 19.632 32.5671 19.632L29.9456 18.8866L27.3248 18.1415C27.3248 18.1415 26.3044 19.3362 25.998 20.4142C25.6915 21.4922 26.0162 23.3704 28.4723 24.0687Z" fill="#263238"/>
<path id="path596" d="M23.9067 26.335L31.1617 28.3976L31.6044 26.8406C31.996 25.4631 31.2201 24.0353 29.8708 23.6517L27.5006 22.9778C26.152 22.5944 24.7411 23.4004 24.3494 24.7779L23.9067 26.335Z" fill="#263238"/>
<path id="path598" d="M28.3442 24.3385C28.8624 24.0557 29.1523 23.8975 29.6705 23.6147L30.5596 20.4876L28.4868 19.8983L27.5977 23.0254C27.8889 23.5383 28.0529 23.8256 28.3442 24.3385Z" fill="#F25242"/>
<path id="path600" d="M30.9094 15.494C28.596 14.8362 27.4121 16.1554 27.1277 17.1555C26.8436 18.1549 27.074 19.5972 27.074 19.5972L29.5433 20.2992L32.0125 21.0013C32.0125 21.0013 32.9679 19.8962 33.252 18.8967C33.5364 17.8966 33.2236 16.152 30.9094 15.494Z" fill="#110D18"/>
<path id="path602" d="M28.0316 21.4992L27.7637 22.4414C29.2954 22.7438 30.1044 22.0885 30.1044 22.0885L28.0316 21.4992Z" fill="#110D18"/>
<path id="path604" d="M27.1809 19.1196C26.796 20.4731 27.5805 21.881 28.9338 22.2657C30.2871 22.6505 31.6955 21.8661 32.0803 20.5126C32.4649 19.1598 31.68 17.7511 30.3267 17.3663C28.9734 16.9815 27.5655 17.7668 27.1809 19.1196Z" fill="#F25242"/>
<path id="path606" d="M30.223 21.3077L28.0349 20.6856C27.3737 20.4976 26.9864 19.8026 27.1746 19.1407L27.5291 17.8937C27.9123 16.5459 29.3278 15.7577 30.6749 16.1407C32.0227 16.5239 32.8118 17.9389 32.4286 19.2867L32.1612 20.227C31.9252 21.057 31.0529 21.5437 30.223 21.3077Z" fill="#F25242"/>
<path id="path608" d="M26.3329 18.8776C26.1998 19.3456 26.4501 19.8274 26.892 19.9531C27.3353 20.0791 27.8016 19.801 27.9346 19.333C28.0677 18.8651 27.8175 18.3832 27.3742 18.2571C26.9322 18.1315 26.4659 18.4097 26.3329 18.8776Z" fill="#F25242"/>
<path id="path610" d="M31.3265 20.2985C31.1935 20.7665 31.4648 21.2543 31.9327 21.3874C32.4014 21.5206 32.8895 21.2486 33.0225 20.7807C33.1555 20.3127 32.8835 19.8247 32.4149 19.6914C31.9469 19.5584 31.4596 19.8306 31.3265 20.2985Z" fill="#F25242"/>
<path id="path612" d="M30.9898 15.2119C27.6098 14.2509 27.1016 17.2809 27.1016 17.2809L33.1865 19.0952C33.1865 19.0952 34.3706 16.1731 30.9898 15.2119Z" fill="#263238"/>
<path id="path614" d="M38.8738 17.25L67.6855 25.4416C67.7693 25.4654 67.8905 25.2953 67.9575 25.0596C68.0239 24.8259 68.0104 24.6174 67.9266 24.5936L39.1149 16.402C39.0318 16.3784 38.9099 16.5484 38.8435 16.7821C38.7765 17.0177 38.7907 17.2264 38.8738 17.25Z" fill="#E6E6E6"/>
<path id="path616" d="M37.387 22.4795L66.1986 30.6711C66.2825 30.6949 66.4036 30.5247 66.4706 30.2891C66.5371 30.0553 66.5236 29.8469 66.4397 29.8231L37.6281 21.6315C37.545 21.6079 37.4231 21.7778 37.3567 22.0116C37.2897 22.2472 37.3039 22.4559 37.387 22.4795Z" fill="#E6E6E6"/>
<path id="path622" d="M35.9002 27.708L64.7118 35.8996C64.7957 35.9234 64.9173 35.7517 64.9836 35.5185C65.0499 35.2854 65.0368 35.0754 64.9529 35.0516L36.1413 26.86C36.0582 26.8364 35.9359 27.0078 35.8696 27.241C35.8033 27.4742 35.8171 27.6844 35.9002 27.708Z" fill="#E6E6E6"/>
<path id="path626" d="M21.0767 30.419L62.796 42.2804C62.8793 42.3041 63.0012 42.1342 63.0677 41.9004C63.1347 41.6648 63.1204 41.4561 63.0371 41.4324L21.3178 29.571C21.2338 29.5472 21.1126 29.7173 21.0456 29.953C20.9791 30.1867 20.9927 30.3951 21.0767 30.419Z" fill="#E6E6E6"/>
<path id="path628" d="M19.9248 34.4698L61.6441 46.3312C61.7274 46.3549 61.8494 46.1849 61.9158 45.9512C61.9828 45.7155 61.9685 45.5069 61.8852 45.4832L20.1659 33.6218C20.082 33.598 19.9607 33.7681 19.8937 34.0037C19.8273 34.2375 19.8409 34.4459 19.9248 34.4698Z" fill="#E6E6E6"/>
<path id="path630" d="M11.9687 62.4532L53.7824 74.3414C53.8663 74.3653 53.9517 74.3213 53.9738 74.2434C53.9962 74.1649 53.9467 74.0826 53.8628 74.0587L12.049 62.1705C11.9651 62.1467 11.8798 62.1906 11.8575 62.2691C11.8353 62.3471 11.8848 62.4293 11.9687 62.4532Z" fill="#F0F0F0"/>
<path id="path632" d="M11.2452 64.9971L52.9644 76.8585C53.0477 76.8822 53.1338 76.8385 53.156 76.7606C53.1783 76.682 53.1281 76.5995 53.0448 76.5759L11.3255 64.7145C11.2415 64.6906 11.1562 64.7345 11.1338 64.8131C11.1117 64.891 11.1612 64.9733 11.2452 64.9971Z" fill="#F0F0F0"/>
<path id="path634" d="M10.4956 67.6348L52.2149 79.4962C52.2982 79.5199 52.3843 79.4762 52.4066 79.3976C52.4288 79.3197 52.3786 79.2372 52.2953 79.2136L10.576 67.3522C10.492 67.3283 10.4067 67.3722 10.3845 67.4501C10.3622 67.5287 10.4117 67.611 10.4956 67.6348Z" fill="#F0F0F0"/>
<path id="path740" d="M60.7613 19.648C60.6048 19.7214 60.5451 19.9134 60.6325 20.0626L65.5306 28.4236C65.6178 28.5724 65.8137 28.6145 65.9543 28.5147L80.1188 18.4592C80.2593 18.3595 80.2842 18.1609 80.1728 18.0295L78.2715 15.7871C78.1728 15.6708 78.0016 15.6492 77.8772 15.7375L67.0025 23.4576C66.8619 23.5574 66.666 23.5153 66.5789 23.3665L63.7519 18.5409C63.6751 18.4098 63.5111 18.3589 63.3736 18.4234L60.7613 19.648Z" fill="#0169EE"/>
</g>
<defs>
<filter id="filter0_d_696_2108" x="0.589185" y="3.07905" width="77.4569" height="89.8646" filterUnits="userSpaceOnUse" color-interpolation-filters="sRGB">
<feFlood flood-opacity="0" result="BackgroundImageFix"/>
<feColorMatrix in="SourceAlpha" type="matrix" values="0 0 0 0 0 0 0 0 0 0 0 0 0 0 0 0 0 0 127 0" result="hardAlpha"/>
<feOffset dy="2.27355"/>
<feGaussianBlur stdDeviation="1.70516"/>
<feComposite in2="hardAlpha" operator="out"/>
<feColorMatrix type="matrix" values="0 0 0 0 0.682353 0 0 0 0 0.682353 0 0 0 0 0.839216 0 0 0 0.62 0"/>
<feBlend mode="normal" in2="BackgroundImageFix" result="effect1_dropShadow_696_2108"/>
<feBlend mode="normal" in="SourceGraphic" in2="effect1_dropShadow_696_2108" result="shape"/>
</filter>
<linearGradient id="paint0_linear_696_2108" x1="29.5802" y1="79.9868" x2="49.0552" y2="11.4889" gradientUnits="userSpaceOnUse">
<stop stop-color="#F6F4FF"/>
<stop offset="1" stop-color="#F6F4FF" stop-opacity="0"/>
</linearGradient>
</defs>
</svg>
