<svg width="178" height="120" viewBox="0 0 178 120" fill="none" xmlns="http://www.w3.org/2000/svg">
<g id="User">
<path id="Vector" d="M177.665 0.470459H0.471191V119.149H177.665V0.470459Z" fill="#FAFAFA"/>
<path id="Vector_2" d="M129.41 72.4107H124.71V44.042C124.71 40.7581 123.406 37.6087 121.084 35.2867C118.763 32.9646 115.615 31.6601 112.333 31.6601C109.05 31.6601 105.902 32.9646 103.581 35.2867C101.26 37.6087 99.9556 40.7581 99.9556 44.042V72.4107H95.0988V44.042C94.8701 41.6504 95.1436 39.2374 95.9017 36.9577C96.6598 34.678 97.8858 32.582 99.501 30.8041C101.116 29.0262 103.085 27.6057 105.281 26.6336C107.478 25.6616 109.853 25.1594 112.254 25.1594C114.656 25.1594 117.031 25.6616 119.227 26.6336C121.423 27.6057 123.392 29.0262 125.007 30.8041C126.623 32.582 127.849 34.678 128.607 36.9577C129.365 39.2374 129.638 41.6504 129.41 44.042V72.4107Z" fill="#263238"/>
<path id="Vector_3" d="M130.349 59.8718H94.3151C91.3732 59.8718 88.9883 62.2577 88.9883 65.2008V84.5416C88.9883 87.4847 91.3732 89.8705 94.3151 89.8705H130.349C133.291 89.8705 135.676 87.4847 135.676 84.5416V65.2008C135.676 62.2577 133.291 59.8718 130.349 59.8718Z" fill="#263238"/>
<path id="Vector_4" d="M112.333 74.7615C111.294 74.7615 110.298 74.3487 109.563 73.6138C108.829 72.879 108.416 71.8824 108.416 70.8431C108.416 69.8039 108.829 68.8073 109.563 68.0724C110.298 67.3376 111.294 66.9248 112.333 66.9248C113.372 66.9248 114.368 67.3376 115.102 68.0724C115.837 68.8073 116.25 69.8039 116.25 70.8431C116.25 71.8824 115.837 72.879 115.102 73.6138C114.368 74.3487 113.372 74.7615 112.333 74.7615Z" fill="#455A64"/>
<path id="Vector_5" d="M113.428 72.4104H111.235V80.4508H113.428V72.4104Z" fill="#455A64"/>
<path id="Vector_6" d="M87.7355 72.0969C91.1257 70.5951 94.0012 68.1317 96.0062 65.0116C98.0112 61.8915 99.0575 58.2517 99.0158 54.5428C99.0158 44.0417 91.1823 35.5781 81.312 35.5781C71.4418 35.5781 63.6083 43.885 63.6083 54.3861C63.4934 58.13 64.508 61.8217 66.52 64.9806C68.532 68.1396 71.448 70.6193 74.8886 72.0969C47.4713 76.172 48.7246 105.794 48.7246 105.794L113.273 106.108C113.273 106.108 114.839 76.172 87.7355 72.0969Z" fill="#0AB34E"/>
<path id="Vector_7" d="M177.508 119.117V116.923C177.351 115.512 177.351 113.318 177.351 110.653V86.83C177.194 66.1412 177.194 36.5187 177.194 0.470203L177.508 0.783664H0.313342L0.783352 0.470203V119.117L0.313342 118.647L127.843 118.96H0V0H177.821V0.470203C177.664 36.6755 177.664 66.298 177.664 86.9867C177.508 97.3311 177.508 105.324 177.508 110.81V119.117Z" fill="#263238"/>
<path id="Vector_8" d="M177.352 14.7329C177.352 14.8896 137.871 15.0464 88.9899 15.0464C40.1088 15.0464 0.471191 14.8896 0.471191 14.7329C0.471191 14.5762 40.1088 14.2627 88.9899 14.2627C137.871 14.2627 177.352 14.4194 177.352 14.7329Z" fill="#263238"/>
<path id="Vector_9" d="M12.0633 7.52313C12.0633 8.02195 11.8652 8.50034 11.5127 8.85306C11.1601 9.20578 10.6819 9.40393 10.1833 9.40393C9.68464 9.40393 9.20645 9.20578 8.85387 8.85306C8.5013 8.50034 8.30322 8.02195 8.30322 7.52313C8.30322 7.02431 8.5013 6.54593 8.85387 6.19321C9.20645 5.84049 9.68464 5.64233 10.1833 5.64233C10.6699 5.67854 11.1273 5.88832 11.4724 6.23351C11.8174 6.57869 12.0271 7.03632 12.0633 7.52313Z" fill="#263238"/>
<path id="Vector_10" d="M18.0178 7.52312C18.0178 8.02193 17.8197 8.50031 17.4671 8.85303C17.1146 9.20574 16.6364 9.4039 16.1377 9.4039C15.8976 9.40489 15.6599 9.35567 15.4399 9.2594C15.2199 9.16313 15.0225 9.02193 14.8602 8.84485C14.698 8.66777 14.5745 8.45872 14.4977 8.23111C14.4209 8.0035 14.3925 7.76234 14.4144 7.52312C14.4127 7.0503 14.5891 6.59421 14.9085 6.24567C15.2279 5.89714 15.6668 5.68173 16.1377 5.64233C16.3846 5.64233 16.6291 5.69097 16.8572 5.78549C17.0853 5.88001 17.2926 6.01855 17.4671 6.1932C17.6417 6.36785 17.7802 6.57517 17.8747 6.80336C17.9692 7.03154 18.0178 7.27613 18.0178 7.52312Z" fill="#263238"/>
<path id="Vector_11" d="M24.4416 7.52312C24.4416 8.02193 24.2435 8.50031 23.891 8.85303C23.5384 9.20574 23.0602 9.4039 22.5616 9.4039C22.3214 9.40489 22.0838 9.35567 21.8638 9.2594C21.6438 9.16313 21.4463 9.02193 21.284 8.84485C21.1218 8.66777 20.9983 8.45872 20.9215 8.23111C20.8447 8.0035 20.8164 7.76234 20.8382 7.52312C20.8365 7.0503 21.013 6.59421 21.3323 6.24567C21.6517 5.89714 22.0906 5.68173 22.5616 5.64233C23.0602 5.64233 23.5384 5.84049 23.891 6.1932C24.2435 6.54592 24.4416 7.0243 24.4416 7.52312Z" fill="#263238"/>
<path id="Vector_12" d="M177.508 119.117V116.923C177.351 115.512 177.351 113.318 177.351 110.653V86.83C177.194 66.1412 177.194 36.5187 177.194 0.470203L177.508 0.783664H0.313342L0.783352 0.470203V119.117L0.313342 118.647L177.508 118.96H0V0H177.821V0.470203C177.664 36.6755 177.664 66.298 177.664 86.9867C177.508 97.3311 177.508 105.324 177.508 110.81V119.117Z" fill="#263238"/>
</g>
</svg>
